<svg width="32" height="32" viewBox="0 0 32 32" fill="none" xmlns="http://www.w3.org/2000/svg">
<rect width="32" height="32" fill="#CB2233"/>
<path fill-rule="evenodd" clip-rule="evenodd" d="M10.7782 15.924L10.7815 15.9201C10.8986 15.7792 11.8444 14.6425 11.8444 13.5296C11.8444 11.575 10.1943 10.5 8.16339 10.5C5.62474 10.5244 4.50773 12.0148 4.50773 13.5296C4.50773 14.4336 4.91392 15.0444 5.49781 15.5331C5.16778 15.7774 4 16.7303 4 18.0985C4 19.7599 5.39626 21.348 8.03646 21.348C10.7274 21.348 12.0729 19.7599 12.0729 18.1473C12.0729 17.0967 11.5144 16.4126 10.7782 15.924ZM19.3396 14.2842H16.7729L16.1806 15.3885C16.1066 15.5603 15.9585 15.7566 15.9585 15.7566H15.9338C15.9338 15.7566 15.8104 15.5603 15.7117 15.3885L15.1441 14.2842H12.5774L14.6011 17.4254L12.6021 20.5911H15.1194L15.8104 19.2905C15.8844 19.1678 15.9832 18.9469 15.9832 18.9469H16.0078C16.0078 18.9469 16.1066 19.1678 16.1806 19.2905L16.8716 20.5911H19.3889L17.3899 17.4254L19.3396 14.2842ZM9.04557 13.7471C9.04557 13.1611 8.63712 12.7705 7.96438 12.7705C7.31566 12.7705 7.02734 13.1367 7.02734 13.6006C7.02734 14.2842 7.77217 14.6504 8.68518 15.041C8.78128 14.8701 9.04557 14.3818 9.04557 13.7471ZM26.924 15.9485L26.9272 15.9446C27.0444 15.8032 27.9902 14.6612 27.9902 13.5433C27.9902 11.5799 26.3401 10.5 24.3091 10.5C21.7705 10.5 20.6535 11.9971 20.6535 13.5188C20.6535 14.4269 21.0597 15.0404 21.6436 15.5313C21.3135 15.7767 20.1458 16.7339 20.1458 18.0838C20.1458 19.7527 21.542 21.348 24.1822 21.348C26.8732 21.348 28.2187 19.7527 28.2187 18.1329C28.2187 17.1266 27.6602 16.4394 26.924 15.9485ZM6.77515 17.8408C6.77515 18.5333 7.33849 19.0775 8.04879 19.0775C8.83256 19.0775 9.29793 18.7065 9.29793 17.9892C9.29793 17.442 8.50698 17.084 7.57746 16.6632L7.57739 16.6632L7.57734 16.6631C7.49858 16.6275 7.41883 16.5914 7.33849 16.5547C7.09356 16.8268 6.77515 17.272 6.77515 17.8408ZM24.1945 19.0775C23.4842 19.0775 22.9209 18.5333 22.9209 17.8408C22.9209 17.272 23.2393 16.8268 23.4842 16.5547C23.5646 16.5914 23.6444 16.6275 23.7232 16.6632C24.6527 17.084 25.4437 17.442 25.4437 17.9892C25.4437 18.7065 24.9783 19.0775 24.1945 19.0775ZM25.1913 13.7471C25.1913 13.1611 24.7829 12.7705 24.1101 12.7705C23.4614 12.7705 23.1731 13.1367 23.1731 13.6006C23.1731 14.2842 23.9179 14.6504 24.8309 15.041C24.927 14.8701 25.1913 14.3818 25.1913 13.7471Z" fill="white"/>
</svg>
