<svg xmlns="http://www.w3.org/2000/svg" xmlns:xlink="http://www.w3.org/1999/xlink" xmlns:lucid="lucid" width="1910.4" height="1359"><g transform="translate(20 20)" lucid:page-tab-id="0_0"><path d="M180 90c0 16.57-13.43 30-30 30s-30-13.43-30-30 13.43-30 30-30 30 13.43 30 30z" stroke="#834187" stroke-width="2" fill="#fff"/><path d="M177 90c0 14.9-12.1 27-27 27s-27-12.1-27-27 12.1-27 27-27 27 12.1 27 27z" stroke="#834187" stroke-width="2" fill="#fff"/><path d="M260 140l80 60-80 60-80-60z" stroke="#000" stroke-width="2" fill="#fff"/><use xlink:href="#a" transform="matrix(1,0,0,1,185,145) translate(30.525 47.8)"/><use xlink:href="#b" transform="matrix(1,0,0,1,185,145) translate(26.049999999999997 69.4)"/><use xlink:href="#c" transform="matrix(1,0,0,1,185,145) translate(45 69.4)"/><use xlink:href="#d" transform="matrix(1,0,0,1,185,145) translate(70.94999999999999 69.4)"/><path d="M182 90h78v30.25" stroke="#000" stroke-width="2" fill="none"/><path d="M182.03 91h-1.1l.07-.98-.03-1.02h1.06z"/><path d="M260 135.5l-4.64-14.25h9.28z" stroke="#000" stroke-width="2"/><path d="M508.33 90c0 16.57-13.43 30-30 30s-30-13.43-30-30 13.43-30 30-30 30 13.43 30 30z" stroke="#000" stroke-width="6" fill="#fff"/><path d="M260 320l80 60-80 60-80-60z" stroke="#000" stroke-width="2" fill="#fff"/><use xlink:href="#e" transform="matrix(1,0,0,1,185,325) translate(24.075000000000003 58.6)"/><use xlink:href="#f" transform="matrix(1,0,0,1,185,325) translate(69.975 58.6)"/><path d="M260 500l80 60-80 60-80-60z" stroke="#000" stroke-width="2" fill="#fff"/><use xlink:href="#g" transform="matrix(1,0,0,1,185,505) translate(30.574999999999996 47.8)"/><use xlink:href="#h" transform="matrix(1,0,0,1,185,505) translate(27.025 69.4)"/><use xlink:href="#f" transform="matrix(1,0,0,1,185,505) translate(67.025 69.4)"/><path d="M180 680h160v120H180z" stroke="#000" stroke-width="2" fill="#fff"/><use xlink:href="#i" transform="matrix(1,0,0,1,185,685) translate(48.05 37)"/><use xlink:href="#j" transform="matrix(1,0,0,1,185,685) translate(10.574999999999989 58.6)"/><use xlink:href="#k" transform="matrix(1,0,0,1,185,685) translate(104.425 58.6)"/><use xlink:href="#l" transform="matrix(1,0,0,1,185,685) translate(-1.125 80.20000000000002)"/><path d="M398.33 860h160v120h-160z" stroke="#000" stroke-width="2" fill="#fff"/><use xlink:href="#m" transform="matrix(1,0,0,1,403.33333333333337,865) translate(39 47.8)"/><use xlink:href="#n" transform="matrix(1,0,0,1,403.33333333333337,865) translate(53 69.4)"/><path d="M180 860h160v120H180z" stroke="#19967d" stroke-width="2" fill="#fff"/><use xlink:href="#o" transform="matrix(1,0,0,1,185,865) translate(20.924999999999997 47.8)"/><use xlink:href="#p" transform="matrix(1,0,0,1,185,865) translate(82.075 47.8)"/><use xlink:href="#q" transform="matrix(1,0,0,1,185,865) translate(1.2249999999999943 69.4)"/><use xlink:href="#r" transform="matrix(1,0,0,1,185,865) translate(54.824999999999996 69.4)"/><path d="M478.33 500l80 60-80 60-80-60z" stroke="#000" stroke-width="2" fill="#fff"/><use xlink:href="#s" transform="matrix(1,0,0,1,403.33333333333337,505) translate(43.25 47.8)"/><use xlink:href="#t" transform="matrix(1,0,0,1,403.33333333333337,505) translate(96.25 47.8)"/><use xlink:href="#u" transform="matrix(1,0,0,1,403.33333333333337,505) translate(29.074999999999996 69.4)"/><path d="M261 300.25h-2v-6.7h2zm0-28.3h-2v-9.7h2z"/><path d="M261 262.28h-2v-1.78l1 .75 1-.75zM260 315.5l-4.64-14.25h9.28z"/><path d="M260 318.75l-6-18.5h12zm-3.26-16.5l3.26 10.03 3.26-10.03z"/><use xlink:href="#v" transform="matrix(1,0,0,1,254,271.95619383870496) translate(0 14.4)"/><path d="M261 480.25h-2v-9.7h2zm0-31.3h-2v-6.7h2z"/><path d="M261 442.28h-2v-1.78l1 .75 1-.75zM260 495.5l-4.64-14.25h9.28z"/><path d="M260 498.75l-6-18.5h12zm-3.26-16.5l3.26 10.03 3.26-10.03z"/><use xlink:href="#w" transform="matrix(1,0,0,1,253.525,448.96217345089644) translate(0 14.4)"/><path d="M261 660.5h-2v-6.45h2zm0-28.05h-2v-10.2h2z"/><path d="M261 622.28h-2v-1.78l1 .75 1-.75zM260 675.76l-4.64-14.26h9.28z"/><path d="M260 679l-6-18.5h12zm-3.26-16.5l3.26 10.03 3.26-10.03z"/><use xlink:href="#w" transform="matrix(1,0,0,1,253.525,632.4546503372961) translate(0 14.4)"/><path d="M352 561h-9.33v-2H352zm26.16 0H364v-2h14.16z"/><path d="M342.7 561h-2.37l1.34-1-1.34-1h2.36zM393.43 560l-14.27 4.64v-9.28z"/><path d="M396.67 560l-18.5 6v-12zm-16.5 3.26l10.02-3.26-10.04-3.26z"/><use xlink:href="#v" transform="matrix(1,0,0,1,352,549.2) translate(0 14.4)"/><path d="M342 920h36.83" stroke="#000" stroke-width="2" fill="none"/><path d="M342.03 921H341v-2h1.03z"/><path d="M394.1 920l-14.27 4.64v-9.28z" stroke="#000" stroke-width="2"/><path d="M479.33 840.5h-2V668.6h2zm0-193.5h-2v-24.75h2z"/><path d="M479.33 622.28h-2v-1.78l1 .75 1-.75zM478.33 855.76l-4.63-14.26h9.27z"/><path d="M478.33 859l-6-18.5h12.02zm-3.26-16.5l3.26 10.03 3.26-10.03z"/><use xlink:href="#v" transform="matrix(1,0,0,1,472.33333333333337,646.9916946869604) translate(0 14.4)"/><path d="M260 802v38.5" stroke="#000" stroke-width="2" fill="none"/><path d="M261 802.03h-2V801h2z"/><path d="M260 855.76l-4.64-14.26h9.28z" stroke="#000" stroke-width="2"/><path d="M696.67 500l80 60-80 60-80-60z" stroke="#000" stroke-width="2" fill="#fff"/><use xlink:href="#s" transform="matrix(1,0,0,1,621.6666666666667,505) translate(43.25 47.8)"/><use xlink:href="#t" transform="matrix(1,0,0,1,621.6666666666667,505) translate(96.25 47.8)"/><use xlink:href="#x" transform="matrix(1,0,0,1,621.6666666666667,505) translate(26.574999999999996 69.4)"/><path d="M572.4 561H561v-2h11.4zm24.1 0h-11.15v-2h11.15z"/><path d="M561.03 561h-2.36l1.33-1-1.33-1h2.36zM611.76 560l-14.26 4.64v-9.28z"/><path d="M615 560l-18.5 6v-12zm-16.5 3.26l10.03-3.26-10.03-3.26z"/><use xlink:href="#w" transform="matrix(1,0,0,1,572.3963102804092,549.2) translate(0 14.4)"/><path d="M360.14 201h-17.47v-2h17.47zm119.2 0H373.08v-2h104.23v-60.5h2z"/><path d="M342.7 201h-2.37l1.34-1-1.34-1h2.36zM482.97 137.5h-9.27l4.63-14.26z"/><path d="M484.35 138.5h-12.03l6-18.5zm-9.28-2h6.52l-3.27-10.03z"/><use xlink:href="#w" transform="matrix(1,0,0,1,360.13953368014546,189.2) translate(0 14.4)"/><path d="M352 381h-9.33v-2H352zm127.33 0H364v-2h113.33V138.5h2z"/><path d="M342.7 381h-2.37l1.34-1-1.34-1h2.36zM482.97 137.5h-9.27l4.63-14.26z"/><path d="M484.35 138.5h-12.03l6-18.5zm-9.28-2h6.52l-3.27-10.03z"/><use xlink:href="#v" transform="matrix(1,0,0,1,352,369.2) translate(0 14.4)"/><path d="M560.33 920h57.5" stroke="#000" stroke-width="2" fill="none"/><path d="M560.36 921h-1.03v-2h1.03z"/><path d="M633.1 920l-14.27 4.64v-9.28z" stroke="#000" stroke-width="2"/><path d="M697.67 497.75h-2v-25.3h2zm0-46.9h-2V91H526.84v-2h170.83z"/><path d="M697.67 499.5l-1-.75-1 .75v-1.78h2zM525.84 94.64L511.57 90l14.27-4.64z"/><path d="M526.84 96l-18.5-6 18.5-6zm-12.03-6l10.04 3.26v-6.52z"/><use xlink:href="#v" transform="matrix(1,0,0,1,690.6666666666667,450.84600102703854) translate(0 14.4)"/><path d="M920 560c0 16.57-13.43 30-30 30s-30-13.43-30-30 13.43-30 30-30 30 13.43 30 30zm-51.22-21.22l42.44 42.44m-42.44 0l42.44-42.44" stroke="#000" stroke-width="2" fill="#fff"/><path d="M697.33 920c0 16.57-13.43 30-30 30s-30-13.43-30-30 13.43-30 30-30 30 13.43 30 30z" fill="#fff"/><path d="M696.53 926.53l-.84 3.3-.92 2.05m-1.68 3.36l-2.18 3.3-1.15 1.24m-2.62 2.7l-3.63 2.78-.95.5m-3.33 1.77l-.12.07-4.7 1.56-.55.08m-3.72.58l-.66.1-2.17.08-2.8-.23m-3.72-.57l-3.3-.84-2.04-.9m-3.36-1.7l-3.3-2.17-1.24-1.17m-2.7-2.6l-2.8-3.64-.5-.96m-1.76-3.33l-.06-.1-1.57-4.72-.08-.54m-.6-3.72l-.1-.67-.07-2.15.24-2.8m.57-3.73l.84-3.3.9-2.05m1.7-3.36l2.16-3.3 1.16-1.24m2.62-2.7l3.63-2.78.95-.5m3.32-1.77l.13-.07 4.7-1.56.55-.08m3.72-.58l.66-.1 2.15-.08 2.82.23m3.7.57l3.3.84 2.06.9m3.37 1.7l3.3 2.17 1.24 1.17m2.7 2.6l2.8 3.64.5.96m1.76 3.33l.07.1 1.56 4.72.08.54m.57 3.72l.1.67.08 2.15-.23 2.8" stroke="#000" stroke-width="2" fill="none"/><path d="M781.78 561h-2.45v-2h2.45zm58.72 0h-45.77v-2h45.77z"/><path d="M779.36 561H777l1.33-1-1.33-1h2.36zM855.76 560l-14.26 4.64v-9.28z"/><path d="M859 560l-18.5 6v-12zm-16.5 3.26l10.03-3.26-10.03-3.26z"/><use xlink:href="#w" transform="matrix(1,0,0,1,781.7840741109866,549.2) translate(0 14.4)"/><path d="M0 0h284v74.8H0z" stroke="#000" stroke-opacity="0" stroke-width="2" fill="#fff" fill-opacity="0"/><use xlink:href="#y" transform="matrix(1,0,0,1,5,5) translate(17.82499999999999 25.299999999999997)"/><use xlink:href="#z" transform="matrix(1,0,0,1,5,5) translate(98.625 25.299999999999997)"/><use xlink:href="#A" transform="matrix(1,0,0,1,5,5) translate(160.525 25.299999999999997)"/><use xlink:href="#B" transform="matrix(1,0,0,1,5,5) translate(84.69999999999999 46.9)"/><path d="M388.33 0h180v74.8h-180z" stroke="#000" stroke-opacity="0" stroke-width="2" fill="#fff" fill-opacity="0"/><use xlink:href="#C" transform="matrix(1,0,0,1,393.33333333333337,5) translate(22.69999999999999 25.299999999999997)"/><use xlink:href="#D" transform="matrix(1,0,0,1,393.33333333333337,5) translate(78.5 25.299999999999997)"/><use xlink:href="#E" transform="matrix(1,0,0,1,393.33333333333337,5) translate(130.4 25.299999999999997)"/><use xlink:href="#F" transform="matrix(1,0,0,1,393.33333333333337,5) translate(9.724999999999994 46.9)"/><use xlink:href="#G" transform="matrix(1,0,0,1,393.33333333333337,5) translate(64.57499999999999 46.9)"/><path d="M810 455.2h180V530H810z" stroke="#000" stroke-opacity="0" stroke-width="2" fill="#fff" fill-opacity="0"/><use xlink:href="#H" transform="matrix(1,0,0,1,815,460.2) translate(26.174999999999997 25.299999999999997)"/><use xlink:href="#I" transform="matrix(1,0,0,1,815,460.2) translate(107.92500000000001 25.299999999999997)"/><use xlink:href="#J" transform="matrix(1,0,0,1,815,460.2) translate(12.625 46.9)"/><path d="M577.33 840h180v74.8h-180z" stroke="#000" stroke-opacity="0" stroke-width="2" fill="#fff" fill-opacity="0"/><use xlink:href="#K" transform="matrix(1,0,0,1,582.3333333333335,845) translate(10.699999999999989 36.1)"/><use xlink:href="#L" transform="matrix(1,0,0,1,582.3333333333335,845) translate(97.55 36.1)"/><path d="M597.33 1064.25h160v90.5h-160z" fill="#fff"/><path d="M604.33 1064.25h6m4 0h6m4 0h6m4 0h6m4 0h6m4 0h6m4 0h6m4 0h6m4 0h6m4 0h6m4 0h6m4 0h6m4 0h6m4 0h6m4 0h6m4 0h3v3.02m0 4.02v6.02m0 4.02v6.04m0 4.02v6.03m0 4.03v6.03m0 4v6.04m0 4.03v6.03m0 4.02v6.04m0 4.02v6.03m0 4.03v3.02h-3m-4 0h-6m-4 0h-6m-4 0h-6m-4 0h-6m-4 0h-6m-4 0h-6m-4 0h-6m-4 0h-6m-4 0h-6m-4 0h-6m-4 0h-6m-4 0h-6m-4 0h-6m-4 0h-6m-4 0h-6m-4 0h-3v-3.02m0-4.02v-6.02m0-4.02v-6.04m0-4.02v-6.03m0-4.03v-6.03m0-4v-6.04m0-4.03v-6.03m0-4.02v-6.04m0-4.02v-6.03m0-4.03v-3.02h3" stroke="#19967d" stroke-width="2" fill="none"/><use xlink:href="#M" transform="matrix(1,0,0,1,602.3333333334108,1069.25) translate(5.599999999999994 44.1)"/><use xlink:href="#N" transform="matrix(1,0,0,1,602.3333333334108,1069.25) translate(39.599999999999994 44.1)"/><use xlink:href="#O" transform="matrix(1,0,0,1,602.3333333334108,1069.25) translate(71.5 44.1)"/><path d="M260 982v127.5h322.33" fill="none"/><path d="M260 982v2.03m0 8.1v4.05m0 8.1v4.06m0 8.1v4.06m0 8.1v4.06m0 8.1v4.05m0 8.12v4.05m0 8.1v4.06m0 8.1v4.06m0 8.1v4.05m0 8.1v4.05m4.2 3.9h4.06m8.1 0h4.06m8.1 0h4.06m8.1 0h4.05m8.1 0h4.06m8.1 0h4.05m8.1 0h4.06m8.1 0h4.06m8.1 0h4.06m8.1 0h4.06m8.1 0h4.06m8.1 0H402m8.1 0h4.05m8.1 0h4.06m8.12 0h4.05m8.1 0h4.06m8.1 0h4.05m8.1 0h4.06m8.1 0h4.06m8.1 0h4.06m8.1 0h4.05m8.12 0h4.05m8.1 0h4.06m8.1 0h4.06m8.1 0h4.04m8.1 0h4.06m8.1 0h2.03" stroke="#19967d" stroke-width="2" fill="none"/><path d="M261 982.03h-2V981h2z" fill="#19967d"/><path d="M594.92 1109.5l-7.07 7.07-7.93-7.07 7.93-7.07z" fill="#fff"/><path d="M596.33 1109.5l-8.44 8.45-9.48-8.45 9.47-8.45zm-14.9 0l6.38 5.7 5.7-5.7-5.7-5.7z" fill="#19967d"/><path d="M1122.67 1049.5l80 60-80 60-80-60z" stroke="#000" stroke-width="2" fill="#fff"/><use xlink:href="#P" transform="matrix(1,0,0,1,1047.6666666666279,1054.5) translate(16.75 58.6)"/><use xlink:href="#Q" transform="matrix(1,0,0,1,1047.6666666666279,1054.5) translate(68.25 58.6)"/><path d="M759.33 1109.5h29.34v.5h11.83" stroke="#000" stroke-width="2" fill="none"/><path d="M759.36 1110.5h-1.03v-2h1.03z"/><path d="M815.76 1110l-14.26 4.64v-9.28z" stroke="#000" stroke-width="2"/><path d="M900 1049.5l80 60-80 60-80-60z" stroke="#000" stroke-width="2" fill="#fff"/><use xlink:href="#P" transform="matrix(1,0,0,1,825,1054.5) translate(34.25 58.6)"/><use xlink:href="#R" transform="matrix(1,0,0,1,825,1054.5) translate(85.75 58.6)"/><path d="M1360 1049.5l80 60-80 60-80-60z" stroke="#000" stroke-width="2" fill="#fff"/><use xlink:href="#S" transform="matrix(1,0,0,1,1285,1054.5) translate(30.525 47.8)"/><use xlink:href="#T" transform="matrix(1,0,0,1,1285,1054.5) translate(80.475 47.8)"/><use xlink:href="#U" transform="matrix(1,0,0,1,1285,1054.5) translate(21.625 69.4)"/><use xlink:href="#V" transform="matrix(1,0,0,1,1285,1054.5) translate(48.525 69.4)"/><use xlink:href="#W" transform="matrix(1,0,0,1,1285,1054.5) translate(97.425 69.4)"/><path d="M597.33 1199h160v120h-160z" stroke="#19967d" stroke-width="2" fill="#fff"/><use xlink:href="#o" transform="matrix(1,0,0,1,602.3333333333721,1204) translate(20.924999999999997 37)"/><use xlink:href="#X" transform="matrix(1,0,0,1,602.3333333333721,1204) translate(82.075 37)"/><use xlink:href="#Y" transform="matrix(1,0,0,1,602.3333333333721,1204) translate(56.7 58.6)"/><use xlink:href="#Z" transform="matrix(1,0,0,1,602.3333333333721,1204) translate(8.049999999999997 80.20000000000002)"/><path d="M901 1260H776.84v-2H899v-46.87h2zm0-70.47h-2v-17.78h2z"/><path d="M901 1171.78h-2V1170l1 .75 1-.75zM775.84 1263.64l-14.27-4.64 14.27-4.64z"/><path d="M776.84 1265l-18.5-6 18.5-6zm-12.03-6l10.04 3.26v-6.52z"/><use xlink:href="#v" transform="matrix(1,0,0,1,894,1189.5333333333333) translate(0 14.4)"/><path d="M595.33 1259h-39v-122.75h26" fill="none"/><path d="M595.33 1259h-1.95m-7.83 0h-3.9m-7.83 0h-3.9m-7.83 0h-3.93m-1.84-5.98v-3.9m0-7.84v-3.9m0-7.83v-3.9m0-7.83v-3.92m0-7.82v-3.9m0-7.83v-3.92m0-7.82v-3.9m0-7.82v-3.9m0-7.84v-3.9m0-7.83v-3.9m.58-7.25h3.92m7.82 0h3.9m7.84 0h1.95" stroke="#19967d" stroke-width="2" fill="none"/><path d="M596.33 1260h-1.02v-2h1.03z" fill="#19967d"/><path d="M594.92 1136.25l-7.07 7.07-7.93-7.07 7.93-7.07z" fill="#fff"/><path d="M596.33 1136.25l-8.44 8.45-9.48-8.45 9.47-8.45zm-14.9 0l6.38 5.7 5.7-5.7-5.7-5.7z" fill="#19967d"/><path d="M1123.67 1047.25h-2v-9.78h2zm0-31.38h-2V999.5h2z"/><path d="M1123.67 1049l-1-.75-1 .75v-1.78h2zM1127.3 998.5h-9.27l4.64-14.26z"/><path d="M1128.68 999.5h-12.03l6.02-18.5zm-9.27-2h6.53l-3.26-10.03z"/><use xlink:href="#v" transform="matrix(1,0,0,1,1116.6666666666279,1015.8666666666668) translate(0 14.4)"/><path d="M1000.86 1110.5h-18.2v-2h18.2zm21.64 0h-8.7v-2h8.7z"/><path d="M982.7 1110.5h-2.37l1.34-1-1.34-1h2.36zM1037.76 1109.5l-14.26 4.64v-9.28z"/><path d="M1041 1109.5l-18.5 6v-12zm-16.5 3.26l10.03-3.26-10.03-3.26z"/><use xlink:href="#w" transform="matrix(1,0,0,1,1000.8583333333333,1098.7) translate(0 14.4)"/><path d="M1361 1047.25h-2v-12.1h2zm0-33.7h-2V999.5h2z"/><path d="M1361 1049l-1-.75-1 .75v-1.78h2zM1364.64 998.5h-9.28l4.64-14.26z"/><path d="M1366 999.5h-12l6-18.5zm-9.26-2h6.52l-3.26-10.03z"/><use xlink:href="#v" transform="matrix(1,0,0,1,1354,1013.5476283300845) translate(0 14.4)"/><path d="M1042.67 500h160v120h-160z" stroke="#0c7cba" stroke-width="2" fill="#fff"/><use xlink:href="#aa" transform="matrix(1,0,0,1,1047.6666666666279,505) translate(39.55 26.19999999999999)"/><use xlink:href="#ab" transform="matrix(1,0,0,1,1047.6666666666279,505) translate(71.45 26.19999999999999)"/><use xlink:href="#ac" transform="matrix(1,0,0,1,1047.6666666666279,505) translate(8 47.79999999999999)"/><use xlink:href="#ad" transform="matrix(1,0,0,1,1047.6666666666279,505) translate(93 47.79999999999999)"/><use xlink:href="#ae" transform="matrix(1,0,0,1,1047.6666666666279,505) translate(1.75 69.39999999999999)"/><use xlink:href="#af" transform="matrix(1,0,0,1,1047.6666666666279,505) translate(51.60000000000001 69.39999999999999)"/><use xlink:href="#ag" transform="matrix(1,0,0,1,1047.6666666666279,505) translate(73.50000000000001 69.39999999999999)"/><use xlink:href="#G" transform="matrix(1,0,0,1,1047.6666666666279,505) translate(27.14999999999999 91)"/><path d="M1280 500h160v120h-160z" stroke="#c92d39" stroke-width="2" fill="#fff"/><use xlink:href="#ah" transform="matrix(1,0,0,1,1285,505) translate(39.55 26.19999999999999)"/><use xlink:href="#ai" transform="matrix(1,0,0,1,1285,505) translate(71.45 26.19999999999999)"/><use xlink:href="#aj" transform="matrix(1,0,0,1,1285,505) translate(8 47.79999999999999)"/><use xlink:href="#ak" transform="matrix(1,0,0,1,1285,505) translate(93 47.79999999999999)"/><use xlink:href="#al" transform="matrix(1,0,0,1,1285,505) translate(19.14999999999999 69.39999999999999)"/><use xlink:href="#am" transform="matrix(1,0,0,1,1285,505) translate(94.95 69.39999999999999)"/><use xlink:href="#J" transform="matrix(1,0,0,1,1285,505) translate(2.625 91)"/><path d="M1042.67 860h160v120h-160z" stroke="#000" stroke-width="2" fill="#fff"/><use xlink:href="#an" transform="matrix(1,0,0,1,1047.6666666666279,865) translate(63 47.8)"/><use xlink:href="#ao" transform="matrix(1,0,0,1,1047.6666666666279,865) translate(2.3249999999999886 69.4)"/><path d="M1280 860h160v120h-160z" stroke="#000" stroke-width="2" fill="#fff"/><use xlink:href="#ap" transform="matrix(1,0,0,1,1285,865) translate(63 47.8)"/><use xlink:href="#aq" transform="matrix(1,0,0,1,1285,865) translate(14.799999999999997 69.4)"/><path d="M1234.86 1110.5h-29.53v-2h29.53zm24.97 0h-12.02v-2h12.03z"/><path d="M1205.36 1110.5H1203l1.33-1-1.33-1h2.36zM1275.1 1109.5l-14.27 4.64v-9.28z"/><path d="M1278.33 1109.5l-18.5 6v-12zm-16.5 3.26l10.03-3.26-10.03-3.26z"/><use xlink:href="#w" transform="matrix(1,0,0,1,1234.858333333314,1098.7) translate(0 14.4)"/><path d="M1042.67 680h160v120h-160z" stroke="#000" stroke-width="2" fill="#fff"/><use xlink:href="#ar" transform="matrix(1,0,0,1,1047.6666666666279,685) translate(2.0749999999999886 26.19999999999999)"/><use xlink:href="#as" transform="matrix(1,0,0,1,1047.6666666666279,685) translate(65.02499999999999 26.19999999999999)"/><use xlink:href="#at" transform="matrix(1,0,0,1,1047.6666666666279,685) translate(2.049999999999997 47.79999999999999)"/><use xlink:href="#au" transform="matrix(1,0,0,1,1047.6666666666279,685) translate(56.05 47.79999999999999)"/><use xlink:href="#av" transform="matrix(1,0,0,1,1047.6666666666279,685) translate(81.05 47.79999999999999)"/><use xlink:href="#aw" transform="matrix(1,0,0,1,1047.6666666666279,685) translate(18.074999999999996 69.39999999999999)"/><use xlink:href="#ax" transform="matrix(1,0,0,1,1047.6666666666279,685) translate(101.92500000000001 69.39999999999999)"/><use xlink:href="#ay" transform="matrix(1,0,0,1,1047.6666666666279,685) translate(42.55 91)"/><path d="M1280 680h160v120h-160z" stroke="#000" stroke-width="2" fill="#fff"/><use xlink:href="#ar" transform="matrix(1,0,0,1,1285,685) translate(2.0749999999999886 47.8)"/><use xlink:href="#as" transform="matrix(1,0,0,1,1285,685) translate(65.02499999999999 47.8)"/><use xlink:href="#az" transform="matrix(1,0,0,1,1285,685) translate(22.324999999999996 69.4)"/><use xlink:href="#aA" transform="matrix(1,0,0,1,1285,685) translate(42.324999999999996 69.4)"/><use xlink:href="#aB" transform="matrix(1,0,0,1,1285,685) translate(86.225 69.4)"/><use xlink:href="#aC" transform="matrix(1,0,0,1,1285,685) translate(101.725 69.4)"/><path d="M1122.67 858v-38.5" stroke="#000" stroke-width="2" fill="none"/><path d="M1123.67 859h-2v-1.03h2z"/><path d="M1122.67 804.24l4.63 14.26h-9.27z" stroke="#000" stroke-width="2"/><path d="M1360 858v-38.5" stroke="#000" stroke-width="2" fill="none"/><path d="M1361 859h-2v-1.03h2z"/><path d="M1360 804.24l4.64 14.26h-9.28z" stroke="#000" stroke-width="2"/><path d="M1360 678v-38.5" stroke="#000" stroke-width="2" fill="none"/><path d="M1361 679h-2v-1.03h2z"/><path d="M1360 624.24l4.64 14.26h-9.28z" stroke="#000" stroke-width="2"/><path d="M1122.67 678v-38.5" stroke="#000" stroke-width="2" fill="none"/><path d="M1123.67 679h-2v-1.03h2z"/><path d="M1122.67 624.24l4.63 14.26h-9.27z" stroke="#000" stroke-width="2"/><path d="M1776.23 90c0 16.57-13.43 30-30 30s-30-13.43-30-30 13.43-30 30-30 30 13.43 30 30z" stroke="#834187" stroke-width="2" fill="#fff"/><path d="M1666.23 520h160v120h-160z" stroke="#000" stroke-width="2" fill="#fff"/><g><use xlink:href="#aD" transform="matrix(1,0,0,1,1671.2333333333447,525) translate(2.125 47.8)"/><use xlink:href="#aE" transform="matrix(1,0,0,1,1671.2333333333447,525) translate(59.025000000000006 47.8)"/><use xlink:href="#aF" transform="matrix(1,0,0,1,1671.2333333333447,525) translate(21.575000000000003 69.4)"/><use xlink:href="#c" transform="matrix(1,0,0,1,1671.2333333333447,525) translate(61.575 69.4)"/><use xlink:href="#aG" transform="matrix(1,0,0,1,1671.2333333333447,525) translate(87.525 69.4)"/></g><path d="M1666.23 870h160v120h-160z" stroke="#19967d" stroke-width="2" fill="#fff"/><g><use xlink:href="#o" transform="matrix(1,0,0,1,1671.2333333333447,875) translate(20.924999999999997 37)"/><use xlink:href="#X" transform="matrix(1,0,0,1,1671.2333333333447,875) translate(82.075 37)"/><use xlink:href="#aH" transform="matrix(1,0,0,1,1671.2333333333447,875) translate(40.05 58.6)"/><use xlink:href="#Z" transform="matrix(1,0,0,1,1671.2333333333447,875) translate(8.049999999999997 80.20000000000002)"/></g><path d="M1238.67 90c0 16.57-13.43 30-30 30s-30-13.43-30-30 13.43-30 30-30 30 13.43 30 30z" stroke="green" stroke-width="2" fill="#64c864"/><path d="M1228.67 90c0 11.05-8.96 20-20 20-11.05 0-20-8.95-20-20s8.95-20 20-20c11.04 0 20 8.95 20 20zm0 0h-4m1.32 10l-3.48-2m-3.85 9.32l-2-3.46m-8 6.14v-4m-10 1.32l2-3.46m-9.32-3.86l3.46-2m-6.13-8h4m-1.32-10l3.46 2m3.87-9.32l2 3.46m8-6.14v4m10-1.32l-2 3.46M1226 80l-3.48 2m-13.85 8V78m0 12h7" stroke="green" stroke-width="2" fill="#fff"/><path d="M800 170h817.33v220H800z" stroke="#000" stroke-width="2" fill="#fff"/><path d="M1026.67 250h160v120h-160z" stroke="#000" stroke-width="2" fill="#fff"/><g><use xlink:href="#aD" transform="matrix(1,0,0,1,1031.6666666667152,255) translate(2.125 47.8)"/><use xlink:href="#aE" transform="matrix(1,0,0,1,1031.6666666667152,255) translate(59.025000000000006 47.8)"/><use xlink:href="#aF" transform="matrix(1,0,0,1,1031.6666666667152,255) translate(21.575000000000003 69.4)"/><use xlink:href="#c" transform="matrix(1,0,0,1,1031.6666666667152,255) translate(61.575 69.4)"/><use xlink:href="#aG" transform="matrix(1,0,0,1,1031.6666666667152,255) translate(87.525 69.4)"/></g><path d="M1312 250l80 60-80 60-80-60z" stroke="#000" stroke-width="2" fill="#fff"/><g><use xlink:href="#aI" transform="matrix(1,0,0,1,1237.0000000000437,255) translate(20.074999999999996 58.6)"/><use xlink:href="#aJ" transform="matrix(1,0,0,1,1237.0000000000437,255) translate(72.975 58.6)"/></g><path d="M1437.33 250h160v120h-160z" stroke="#000" stroke-width="2" fill="#fff"/><g><use xlink:href="#aK" transform="matrix(1,0,0,1,1442.3333333333721,255) translate(17.374999999999993 47.8)"/><use xlink:href="#aG" transform="matrix(1,0,0,1,1442.3333333333721,255) translate(54.55 69.4)"/></g><path d="M1188.67 310h23.16" stroke="#000" stroke-width="2" fill="none"/><path d="M1188.7 311h-1.03v-2h1.02z"/><path d="M1227.1 310l-14.27 4.64v-9.28z" stroke="#000" stroke-width="2"/><path d="M1396.86 311h-2.2v-2h2.2zm20.97 0h-8.97v-2h8.97z"/><path d="M1394.7 311h-2.37l1.34-1-1.34-1h2.36zM1433.1 310l-14.27 4.64v-9.28z"/><path d="M1436.33 310l-18.5 6v-12zm-16.5 3.26l10.03-3.26-10.03-3.26z"/><g><use xlink:href="#v" transform="matrix(1,0,0,1,1396.8620689655645,299.2) translate(0 14.4)"/></g><path d="M1058.67 160h300v60h-300z" stroke="#000" stroke-opacity="0" stroke-width="2" fill="#fff" fill-opacity="0"/><g><use xlink:href="#aL" transform="matrix(1,0,0,1,1063.666666666686,165) translate(15.149999999999977 28.6)"/><use xlink:href="#aM" transform="matrix(1,0,0,1,1063.666666666686,165) translate(47.04999999999998 28.6)"/><use xlink:href="#aN" transform="matrix(1,0,0,1,1063.666666666686,165) translate(91.04999999999998 28.6)"/><use xlink:href="#aO" transform="matrix(1,0,0,1,1063.666666666686,165) translate(146 28.6)"/><use xlink:href="#aP" transform="matrix(1,0,0,1,1063.666666666686,165) translate(239.85000000000002 28.6)"/></g><path d="M897.33 250l80 60-80 60-80-60z" stroke="#000" stroke-width="2" fill="#fff"/><g><use xlink:href="#aQ" transform="matrix(1,0,0,1,822.3333333333721,255) translate(33.55 47.8)"/><use xlink:href="#aR" transform="matrix(1,0,0,1,822.3333333333721,255) translate(41 69.4)"/></g><path d="M985.33 311H980v-2h5.33zm21.83 0h-9.83v-2h9.83z"/><path d="M980.03 311h-2.36l1.33-1-1.33-1h2.36zM1022.43 310l-14.27 4.64v-9.28z"/><path d="M1025.67 310l-18.5 6v-12zm-16.5 3.26l10.02-3.26-10.04-3.26z"/><g><use xlink:href="#v" transform="matrix(1,0,0,1,985.3333333333723,299.2) translate(0 14.4)"/></g><path d="M1746.23 170l80 60-80 60-80-60z" stroke="#000" stroke-width="2" fill="#fff"/><g><use xlink:href="#aS" transform="matrix(1,0,0,1,1671.2333333333447,175) translate(32.025 47.8)"/><use xlink:href="#aT" transform="matrix(1,0,0,1,1671.2333333333447,175) translate(49.55 69.4)"/></g><path d="M1746.23 345l80 60-80 60-80-60z" stroke="#000" stroke-width="2" fill="#fff"/><g><use xlink:href="#aU" transform="matrix(1,0,0,1,1671.2333333333213,350) translate(30.574999999999996 47.8)"/><use xlink:href="#aV" transform="matrix(1,0,0,1,1671.2333333333213,350) translate(52.5 69.4)"/></g><path d="M1746.23 695l80 60-80 60-80-60z" stroke="#000" stroke-width="2" fill="#fff"/><g><use xlink:href="#aW" transform="matrix(1,0,0,1,1671.2333333333447,700) translate(55.5 47.8)"/><use xlink:href="#aX" transform="matrix(1,0,0,1,1671.2333333333447,700) translate(30.074999999999996 69.4)"/></g><path d="M1746.23 122v28.25" stroke="#000" stroke-width="2" fill="none"/><path d="M1746.2 121l1.03-.03v1.06h-2v-1.1z"/><path d="M1746.23 165.5l-4.63-14.25h9.27z" stroke="#000" stroke-width="2"/><path d="M1747.23 325.25h-2v-8.1h2zm0-29.7h-2v-3.3h2z"/><path d="M1747.23 292.28h-2v-1.78l1 .75 1-.75zM1746.23 340.5l-4.63-14.25h9.27z"/><path d="M1746.23 343.75l-6-18.5h12.02zm-3.26-16.5l3.26 10.03 3.26-10.03z"/><g><use xlink:href="#w" transform="matrix(1,0,0,1,1739.7583333333448,295.551851851853) translate(0 14.4)"/></g><path d="M1747.23 500.5h-2v-4.37h2zm0-25.97h-2v-7.28h2z"/><path d="M1747.23 467.28h-2v-1.78l1 .75 1-.75zM1746.23 515.76l-4.63-14.26h9.27z"/><path d="M1746.23 519l-6-18.5h12.02zm-3.26-16.5l3.26 10.03 3.26-10.03z"/><g><use xlink:href="#v" transform="matrix(1,0,0,1,1740.2333333333213,474.5333333333333) translate(0 14.4)"/></g><path d="M1746.23 642v33.25" stroke="#000" stroke-width="2" fill="none"/><path d="M1747.23 642.03h-2V641h2z"/><path d="M1746.23 690.5l-4.63-14.25h9.27z" stroke="#000" stroke-width="2"/><path d="M1747.23 850.5h-2v-5.03h2zm0-26.63h-2v-6.62h2z"/><path d="M1747.23 817.28h-2v-1.78l1 .75 1-.75zM1746.23 865.76l-4.63-14.26h9.27z"/><path d="M1746.23 869l-6-18.5h12.02zm-3.26-16.5l3.26 10.03 3.26-10.03z"/><g><use xlink:href="#v" transform="matrix(1,0,0,1,1740.2333333333447,823.8666666666667) translate(0 14.4)"/></g><path d="M1622.07 20h248.33v40h-248.33z" stroke="#000" stroke-opacity="0" stroke-width="2" fill="#fff" fill-opacity="0"/><g><use xlink:href="#aY" transform="matrix(1,0,0,1,1627.0666666666664,25) translate(29.72500000000001 18.6)"/></g><path d="M1208.67 122v28.5" stroke="#000" stroke-width="2" fill="none"/><path d="M1208.64 121l1.03-.03v1.06h-2v-1.1z"/><path d="M1208.67 165.76l-4.64-14.26h9.27z" stroke="#000" stroke-width="2"/><path d="M1089 29h248.33v40H1089z" stroke="#000" stroke-opacity="0" stroke-width="2" fill="#fff" fill-opacity="0"/><g><use xlink:href="#aZ" transform="matrix(1,0,0,1,1094,34) translate(49.025000000000006 18.6)"/><use xlink:href="#ba" transform="matrix(1,0,0,1,1094,34) translate(97.97500000000001 18.6)"/><use xlink:href="#bb" transform="matrix(1,0,0,1,1094,34) translate(122.97500000000001 18.6)"/></g><defs><path d="M96-169c-40 0-48 33-48 73s9 75 48 75c24 0 41-14 43-38l32 2c-6 37-31 61-74 61-59 0-76-41-82-99-10-93 101-131 147-64 4 7 5 14 7 22l-32 3c-4-21-16-35-41-35" id="bc"/><path d="M100-194c62-1 85 37 85 99 1 63-27 99-86 99S16-35 15-95c0-66 28-99 85-99zM99-20c44 1 53-31 53-75 0-43-8-75-51-75s-53 32-53 75 10 74 51 75" id="bd"/><path d="M117-194c89-4 53 116 60 194h-32v-121c0-31-8-49-39-48C34-167 62-67 57 0H25l-1-190h30c1 10-1 24 2 32 11-22 29-35 61-36" id="be"/><path d="M101-234c-31-9-42 10-38 44h38v23H63V0H32v-167H5v-23h27c-7-52 17-82 69-68v24" id="bf"/><path d="M100-194c63 0 86 42 84 106H49c0 40 14 67 53 68 26 1 43-12 49-29l28 8c-11 28-37 45-77 45C44 4 14-33 15-96c1-61 26-98 85-98zm52 81c6-60-76-77-97-28-3 7-6 17-6 28h103" id="bg"/><path d="M114-163C36-179 61-72 57 0H25l-1-190h30c1 12-1 29 2 39 6-27 23-49 58-41v29" id="bh"/><g id="a"><use transform="matrix(0.05,0,0,0.05,0,0)" xlink:href="#bc"/><use transform="matrix(0.05,0,0,0.05,9,0)" xlink:href="#bd"/><use transform="matrix(0.05,0,0,0.05,19,0)" xlink:href="#be"/><use transform="matrix(0.05,0,0,0.05,29,0)" xlink:href="#bf"/><use transform="matrix(0.05,0,0,0.05,34,0)" xlink:href="#bg"/><use transform="matrix(0.05,0,0,0.05,44,0)" xlink:href="#bh"/><use transform="matrix(0.05,0,0,0.05,49.95,0)" xlink:href="#bg"/><use transform="matrix(0.05,0,0,0.05,59.95,0)" xlink:href="#be"/><use transform="matrix(0.05,0,0,0.05,69.95,0)" xlink:href="#bc"/><use transform="matrix(0.05,0,0,0.05,78.95,0)" xlink:href="#bg"/></g><path d="M24-231v-30h32v30H24zM24 0v-190h32V0H24" id="bi"/><path d="M145-31C134-9 116 4 85 4 32 4 16-35 15-94c0-59 17-99 70-100 32-1 48 14 60 33 0-11-1-24 2-32h30l-1 268h-32zM93-21c41 0 51-33 51-76s-8-73-50-73c-40 0-46 35-46 75s5 74 45 74" id="bj"/><g id="b"><use transform="matrix(0.05,0,0,0.05,0,0)" xlink:href="#bi"/><use transform="matrix(0.05,0,0,0.05,3.95,0)" xlink:href="#bj"/></g><g id="c"><use transform="matrix(0.05,0,0,0.05,0,0)" xlink:href="#bf"/><use transform="matrix(0.05,0,0,0.05,5,0)" xlink:href="#bd"/><use transform="matrix(0.05,0,0,0.05,15,0)" xlink:href="#bh"/></g><path d="M84 4C-5 8 30-112 23-190h32v120c0 31 7 50 39 49 72-2 45-101 50-169h31l1 190h-30c-1-10 1-25-2-33-11 22-28 36-60 37" id="bk"/><path d="M135-143c-3-34-86-38-87 0 15 53 115 12 119 90S17 21 10-45l28-5c4 36 97 45 98 0-10-56-113-15-118-90-4-57 82-63 122-42 12 7 21 19 24 35" id="bl"/><path d="M103-251c84 0 111 97 45 133-19 10-37 24-39 52H78c0-63 77-55 77-114 0-30-21-42-52-43-32 0-53 17-56 46l-32-2c7-45 34-72 88-72zM77 0v-35h34V0H77" id="bm"/><g id="d"><use transform="matrix(0.05,0,0,0.05,0,0)" xlink:href="#bf"/><use transform="matrix(0.05,0,0,0.05,5,0)" xlink:href="#bd"/><use transform="matrix(0.05,0,0,0.05,15,0)" xlink:href="#bc"/><use transform="matrix(0.05,0,0,0.05,24,0)" xlink:href="#bk"/><use transform="matrix(0.05,0,0,0.05,34,0)" xlink:href="#bl"/><use transform="matrix(0.05,0,0,0.05,43,0)" xlink:href="#bm"/></g><path d="M210-169c-67 3-38 105-44 169h-31v-121c0-29-5-50-35-48C34-165 62-65 56 0H25l-1-190h30c1 10-1 24 2 32 10-44 99-50 107 0 11-21 27-35 58-36 85-2 47 119 55 194h-31v-121c0-29-5-49-35-48" id="bn"/><g id="e"><use transform="matrix(0.05,0,0,0.05,0,0)" xlink:href="#bh"/><use transform="matrix(0.05,0,0,0.05,5.95,0)" xlink:href="#bd"/><use transform="matrix(0.05,0,0,0.05,15.949999999999998,0)" xlink:href="#bd"/><use transform="matrix(0.05,0,0,0.05,25.950000000000003,0)" xlink:href="#bn"/></g><path d="M141 0L90-78 38 0H4l68-98-65-92h35l48 74 47-74h35l-64 92 68 98h-35" id="bo"/><path d="M59-47c-2 24 18 29 38 22v24C64 9 27 4 27-40v-127H5v-23h24l9-43h21v43h35v23H59v120" id="bp"/><g id="f"><use transform="matrix(0.05,0,0,0.05,0,0)" xlink:href="#bg"/><use transform="matrix(0.05,0,0,0.05,10,0)" xlink:href="#bo"/><use transform="matrix(0.05,0,0,0.05,19,0)" xlink:href="#bi"/><use transform="matrix(0.05,0,0,0.05,22.95,0)" xlink:href="#bl"/><use transform="matrix(0.05,0,0,0.05,31.950000000000003,0)" xlink:href="#bp"/><use transform="matrix(0.05,0,0,0.05,36.95,0)" xlink:href="#bl"/><use transform="matrix(0.05,0,0,0.05,45.95,0)" xlink:href="#bm"/></g><path d="M108 0H70L1-190h34L89-25l56-165h34" id="bq"/><path d="M141-36C126-15 110 5 73 4 37 3 15-17 15-53c-1-64 63-63 125-63 3-35-9-54-41-54-24 1-41 7-42 31l-33-3c5-37 33-52 76-52 45 0 72 20 72 64v82c-1 20 7 32 28 27v20c-31 9-61-2-59-35zM48-53c0 20 12 33 32 33 41-3 63-29 60-74-43 2-92-5-92 41" id="br"/><g id="g"><use transform="matrix(0.05,0,0,0.05,0,0)" xlink:href="#bh"/><use transform="matrix(0.05,0,0,0.05,5.95,0)" xlink:href="#bg"/><use transform="matrix(0.05,0,0,0.05,15.949999999999998,0)" xlink:href="#bl"/><use transform="matrix(0.05,0,0,0.05,24.95,0)" xlink:href="#bg"/><use transform="matrix(0.05,0,0,0.05,34.95,0)" xlink:href="#bh"/><use transform="matrix(0.05,0,0,0.05,40.900000000000006,0)" xlink:href="#bq"/><use transform="matrix(0.05,0,0,0.05,49.900000000000006,0)" xlink:href="#br"/><use transform="matrix(0.05,0,0,0.05,59.900000000000006,0)" xlink:href="#bp"/><use transform="matrix(0.05,0,0,0.05,64.9,0)" xlink:href="#bi"/><use transform="matrix(0.05,0,0,0.05,68.85000000000001,0)" xlink:href="#bd"/><use transform="matrix(0.05,0,0,0.05,78.85000000000001,0)" xlink:href="#be"/></g><path d="M85-194c31 0 48 13 60 33l-1-100h32l1 261h-30c-2-10 0-23-3-31C134-8 116 4 85 4 32 4 16-35 15-94c0-66 23-100 70-100zm9 24c-40 0-46 34-46 75 0 40 6 74 45 74 42 0 51-32 51-76 0-42-9-74-50-73" id="bs"/><g id="h"><use transform="matrix(0.05,0,0,0.05,0,0)" xlink:href="#bs"/><use transform="matrix(0.05,0,0,0.05,10,0)" xlink:href="#br"/><use transform="matrix(0.05,0,0,0.05,20,0)" xlink:href="#bp"/><use transform="matrix(0.05,0,0,0.05,25,0)" xlink:href="#br"/></g><path d="M212-179c-10-28-35-45-73-45-59 0-87 40-87 99 0 60 29 101 89 101 43 0 62-24 78-52l27 14C228-24 195 4 139 4 59 4 22-46 18-125c-6-104 99-153 187-111 19 9 31 26 39 46" id="bt"/><g id="i"><use transform="matrix(0.05,0,0,0.05,0,0)" xlink:href="#bt"/><use transform="matrix(0.05,0,0,0.05,12.950000000000001,0)" xlink:href="#bh"/><use transform="matrix(0.05,0,0,0.05,18.900000000000002,0)" xlink:href="#bg"/><use transform="matrix(0.05,0,0,0.05,28.900000000000002,0)" xlink:href="#br"/><use transform="matrix(0.05,0,0,0.05,38.900000000000006,0)" xlink:href="#bp"/><use transform="matrix(0.05,0,0,0.05,43.900000000000006,0)" xlink:href="#bg"/></g><g id="j"><use transform="matrix(0.05,0,0,0.05,0,0)" xlink:href="#bh"/><use transform="matrix(0.05,0,0,0.05,5.95,0)" xlink:href="#bg"/><use transform="matrix(0.05,0,0,0.05,15.949999999999998,0)" xlink:href="#bl"/><use transform="matrix(0.05,0,0,0.05,24.95,0)" xlink:href="#bg"/><use transform="matrix(0.05,0,0,0.05,34.95,0)" xlink:href="#bh"/><use transform="matrix(0.05,0,0,0.05,40.900000000000006,0)" xlink:href="#bq"/><use transform="matrix(0.05,0,0,0.05,49.900000000000006,0)" xlink:href="#br"/><use transform="matrix(0.05,0,0,0.05,59.900000000000006,0)" xlink:href="#bp"/><use transform="matrix(0.05,0,0,0.05,64.9,0)" xlink:href="#bi"/><use transform="matrix(0.05,0,0,0.05,68.85000000000001,0)" xlink:href="#bd"/><use transform="matrix(0.05,0,0,0.05,78.85000000000001,0)" xlink:href="#be"/></g><g id="k"><use transform="matrix(0.05,0,0,0.05,0,0)" xlink:href="#bs"/><use transform="matrix(0.05,0,0,0.05,10,0)" xlink:href="#br"/><use transform="matrix(0.05,0,0,0.05,20,0)" xlink:href="#bp"/><use transform="matrix(0.05,0,0,0.05,25,0)" xlink:href="#br"/></g><path d="M87 75C49 33 22-17 22-94c0-76 28-126 65-167h31c-38 41-64 92-64 168S80 34 118 75H87" id="bu"/><path d="M18-150v-26h174v26H18zm0 90v-26h174v26H18" id="bv"/><path d="M30-248c87 1 191-15 191 75 0 78-77 80-158 76V0H30v-248zm33 125c57 0 124 11 124-50 0-59-68-47-124-48v98" id="bw"/><path d="M30 0v-248h187v28H63v79h144v27H63v87h162V0H30" id="bx"/><path d="M190 0L58-211 59 0H30v-248h39L202-35l-2-213h31V0h-41" id="by"/><path d="M30-248c118-7 216 8 213 122C240-48 200 0 122 0H30v-248zM63-27c89 8 146-16 146-99s-60-101-146-95v194" id="bz"/><path d="M33 0v-248h34V0H33" id="bA"/><path d="M143 4C61 4 22-44 18-125c-5-107 100-154 193-111 17 8 29 25 37 43l-32 9c-13-25-37-40-76-40-61 0-88 39-88 99 0 61 29 100 91 101 35 0 62-11 79-27v-45h-74v-28h105v86C228-13 192 4 143 4" id="bB"/><path d="M33-261c38 41 65 92 65 168S71 34 33 75H2C39 34 66-17 66-93S39-220 2-261h31" id="bC"/><g id="l"><use transform="matrix(0.05,0,0,0.05,0,0)" xlink:href="#bu"/><use transform="matrix(0.05,0,0,0.05,5.95,0)" xlink:href="#bl"/><use transform="matrix(0.05,0,0,0.05,14.949999999999998,0)" xlink:href="#bp"/><use transform="matrix(0.05,0,0,0.05,19.95,0)" xlink:href="#br"/><use transform="matrix(0.05,0,0,0.05,29.950000000000003,0)" xlink:href="#bp"/><use transform="matrix(0.05,0,0,0.05,34.95,0)" xlink:href="#bk"/><use transform="matrix(0.05,0,0,0.05,44.95,0)" xlink:href="#bl"/><use transform="matrix(0.05,0,0,0.05,53.95,0)" xlink:href="#bv"/><use transform="matrix(0.05,0,0,0.05,64.45,0)" xlink:href="#bw"/><use transform="matrix(0.05,0,0,0.05,76.45,0)" xlink:href="#bx"/><use transform="matrix(0.05,0,0,0.05,88.45,0)" xlink:href="#by"/><use transform="matrix(0.05,0,0,0.05,101.4,0)" xlink:href="#bz"/><use transform="matrix(0.05,0,0,0.05,114.35000000000001,0)" xlink:href="#bA"/><use transform="matrix(0.05,0,0,0.05,119.35000000000001,0)" xlink:href="#by"/><use transform="matrix(0.05,0,0,0.05,132.3,0)" xlink:href="#bB"/><use transform="matrix(0.05,0,0,0.05,146.3,0)" xlink:href="#bC"/></g><g id="m"><use transform="matrix(0.05,0,0,0.05,0,0)" xlink:href="#bx"/><use transform="matrix(0.05,0,0,0.05,12,0)" xlink:href="#be"/><use transform="matrix(0.05,0,0,0.05,22,0)" xlink:href="#bj"/><use transform="matrix(0.05,0,0,0.05,32,0)" xlink:href="#bk"/><use transform="matrix(0.05,0,0,0.05,42,0)" xlink:href="#bg"/><use transform="matrix(0.05,0,0,0.05,52,0)" xlink:href="#bk"/><use transform="matrix(0.05,0,0,0.05,62,0)" xlink:href="#bg"/></g><g id="n"><use transform="matrix(0.05,0,0,0.05,0,0)" xlink:href="#bg"/><use transform="matrix(0.05,0,0,0.05,10,0)" xlink:href="#bq"/><use transform="matrix(0.05,0,0,0.05,19,0)" xlink:href="#bg"/><use transform="matrix(0.05,0,0,0.05,29,0)" xlink:href="#be"/><use transform="matrix(0.05,0,0,0.05,39,0)" xlink:href="#bp"/></g><path fill="#19967d" d="M127-220V0H93v-220H8v-28h204v28h-85" id="bD"/><path fill="#19967d" d="M114-163C36-179 61-72 57 0H25l-1-190h30c1 12-1 29 2 39 6-27 23-49 58-41v29" id="bE"/><path fill="#19967d" d="M24-231v-30h32v30H24zM24 0v-190h32V0H24" id="bF"/><path fill="#19967d" d="M177-190C167-65 218 103 67 71c-23-6-38-20-44-43l32-5c15 47 100 32 89-28v-30C133-14 115 1 83 1 29 1 15-40 15-95c0-56 16-97 71-98 29-1 48 16 59 35 1-10 0-23 2-32h30zM94-22c36 0 50-32 50-73 0-42-14-75-50-75-39 0-46 34-46 75s6 73 46 73" id="bG"/><path fill="#19967d" d="M100-194c63 0 86 42 84 106H49c0 40 14 67 53 68 26 1 43-12 49-29l28 8c-11 28-37 45-77 45C44 4 14-33 15-96c1-61 26-98 85-98zm52 81c6-60-76-77-97-28-3 7-6 17-6 28h103" id="bH"/><g id="o"><use transform="matrix(0.05,0,0,0.05,0,0)" xlink:href="#bD"/><use transform="matrix(0.05,0,0,0.05,10.3,0)" xlink:href="#bE"/><use transform="matrix(0.05,0,0,0.05,16.25,0)" xlink:href="#bF"/><use transform="matrix(0.05,0,0,0.05,20.2,0)" xlink:href="#bG"/><use transform="matrix(0.05,0,0,0.05,30.200000000000003,0)" xlink:href="#bG"/><use transform="matrix(0.05,0,0,0.05,40.2,0)" xlink:href="#bH"/><use transform="matrix(0.05,0,0,0.05,50.2,0)" xlink:href="#bE"/></g><path fill="#19967d" d="M141-36C126-15 110 5 73 4 37 3 15-17 15-53c-1-64 63-63 125-63 3-35-9-54-41-54-24 1-41 7-42 31l-33-3c5-37 33-52 76-52 45 0 72 20 72 64v82c-1 20 7 32 28 27v20c-31 9-61-2-59-35zM48-53c0 20 12 33 32 33 41-3 63-29 60-74-43 2-92-5-92 41" id="bI"/><path fill="#19967d" d="M135-143c-3-34-86-38-87 0 15 53 115 12 119 90S17 21 10-45l28-5c4 36 97 45 98 0-10-56-113-15-118-90-4-57 82-63 122-42 12 7 21 19 24 35" id="bJ"/><path fill="#19967d" d="M179-190L93 31C79 59 56 82 12 73V49c39 6 53-20 64-50L1-190h34L92-34l54-156h33" id="bK"/><path fill="#19967d" d="M117-194c89-4 53 116 60 194h-32v-121c0-31-8-49-39-48C34-167 62-67 57 0H25l-1-190h30c1 10-1 24 2 32 11-22 29-35 61-36" id="bL"/><path fill="#19967d" d="M96-169c-40 0-48 33-48 73s9 75 48 75c24 0 41-14 43-38l32 2c-6 37-31 61-74 61-59 0-76-41-82-99-10-93 101-131 147-64 4 7 5 14 7 22l-32 3c-4-21-16-35-41-35" id="bM"/><g id="p"><use transform="matrix(0.05,0,0,0.05,0,0)" xlink:href="#bI"/><use transform="matrix(0.05,0,0,0.05,10,0)" xlink:href="#bJ"/><use transform="matrix(0.05,0,0,0.05,19,0)" xlink:href="#bK"/><use transform="matrix(0.05,0,0,0.05,28,0)" xlink:href="#bL"/><use transform="matrix(0.05,0,0,0.05,38,0)" xlink:href="#bM"/></g><path fill="#19967d" d="M30-248c87 1 191-15 191 75 0 78-77 80-158 76V0H30v-248zm33 125c57 0 124 11 124-50 0-59-68-47-124-48v98" id="bN"/><path fill="#19967d" d="M140-251c81 0 123 46 123 126C263-46 219 4 140 4 59 4 17-45 17-125s42-126 123-126zm0 227c63 0 89-41 89-101s-29-99-89-99c-61 0-89 39-89 99S79-25 140-24" id="bO"/><path fill="#19967d" d="M185-189c-5-48-123-54-124 2 14 75 158 14 163 119 3 78-121 87-175 55-17-10-28-26-33-46l33-7c5 56 141 63 141-1 0-78-155-14-162-118-5-82 145-84 179-34 5 7 8 16 11 25" id="bP"/><g id="q"><use transform="matrix(0.05,0,0,0.05,0,0)" xlink:href="#bN"/><use transform="matrix(0.05,0,0,0.05,12,0)" xlink:href="#bO"/><use transform="matrix(0.05,0,0,0.05,26,0)" xlink:href="#bP"/><use transform="matrix(0.05,0,0,0.05,38,0)" xlink:href="#bD"/></g><path fill="#19967d" d="M0 4l72-265h28L28 4H0" id="bQ"/><path fill="#19967d" d="M100-194c62-1 85 37 85 99 1 63-27 99-86 99S16-35 15-95c0-66 28-99 85-99zM99-20c44 1 53-31 53-75 0-43-8-75-51-75s-53 32-53 75 10 74 51 75" id="bR"/><path fill="#19967d" d="M101-234c-31-9-42 10-38 44h38v23H63V0H32v-167H5v-23h27c-7-52 17-82 69-68v24" id="bS"/><g id="r"><use transform="matrix(0.05,0,0,0.05,0,0)" xlink:href="#bQ"/><use transform="matrix(0.05,0,0,0.05,5,0)" xlink:href="#bM"/><use transform="matrix(0.05,0,0,0.05,14,0)" xlink:href="#bR"/><use transform="matrix(0.05,0,0,0.05,24,0)" xlink:href="#bL"/><use transform="matrix(0.05,0,0,0.05,34,0)" xlink:href="#bS"/><use transform="matrix(0.05,0,0,0.05,39,0)" xlink:href="#bH"/><use transform="matrix(0.05,0,0,0.05,49,0)" xlink:href="#bE"/><use transform="matrix(0.05,0,0,0.05,54.95,0)" xlink:href="#bH"/><use transform="matrix(0.05,0,0,0.05,64.95,0)" xlink:href="#bL"/><use transform="matrix(0.05,0,0,0.05,74.95,0)" xlink:href="#bM"/><use transform="matrix(0.05,0,0,0.05,83.95,0)" xlink:href="#bH"/></g><g id="s"><use transform="matrix(0.05,0,0,0.05,0,0)" xlink:href="#bl"/><use transform="matrix(0.05,0,0,0.05,9,0)" xlink:href="#bp"/><use transform="matrix(0.05,0,0,0.05,14,0)" xlink:href="#br"/><use transform="matrix(0.05,0,0,0.05,24,0)" xlink:href="#bp"/><use transform="matrix(0.05,0,0,0.05,29,0)" xlink:href="#bk"/><use transform="matrix(0.05,0,0,0.05,39,0)" xlink:href="#bl"/></g><use transform="matrix(0.05,0,0,0.05,0,0)" xlink:href="#bv" id="t"/><g id="u"><use transform="matrix(0.05,0,0,0.05,0,0)" xlink:href="#bw"/><use transform="matrix(0.05,0,0,0.05,12,0)" xlink:href="#bx"/><use transform="matrix(0.05,0,0,0.05,24,0)" xlink:href="#by"/><use transform="matrix(0.05,0,0,0.05,36.95,0)" xlink:href="#bz"/><use transform="matrix(0.05,0,0,0.05,49.900000000000006,0)" xlink:href="#bA"/><use transform="matrix(0.05,0,0,0.05,54.900000000000006,0)" xlink:href="#by"/><use transform="matrix(0.05,0,0,0.05,67.85000000000001,0)" xlink:href="#bB"/><use transform="matrix(0.05,0,0,0.05,81.85000000000001,0)" xlink:href="#bm"/></g><path d="M137-103V0h-34v-103L8-248h37l75 118 75-118h37" id="bT"/><use transform="matrix(0.05,0,0,0.05,0,0)" xlink:href="#bT" id="v"/><use transform="matrix(0.05,0,0,0.05,0,0)" xlink:href="#by" id="w"/><path d="M185-189c-5-48-123-54-124 2 14 75 158 14 163 119 3 78-121 87-175 55-17-10-28-26-33-46l33-7c5 56 141 63 141-1 0-78-155-14-162-118-5-82 145-84 179-34 5 7 8 16 11 25" id="bU"/><path d="M232-93c-1 65-40 97-104 97C67 4 28-28 28-90v-158h33c8 89-33 224 67 224 102 0 64-133 71-224h33v155" id="bV"/><g id="x"><use transform="matrix(0.05,0,0,0.05,0,0)" xlink:href="#bU"/><use transform="matrix(0.05,0,0,0.05,12,0)" xlink:href="#bV"/><use transform="matrix(0.05,0,0,0.05,24.950000000000003,0)" xlink:href="#bt"/><use transform="matrix(0.05,0,0,0.05,37.900000000000006,0)" xlink:href="#bt"/><use transform="matrix(0.05,0,0,0.05,50.85000000000001,0)" xlink:href="#bx"/><use transform="matrix(0.05,0,0,0.05,62.85,0)" xlink:href="#bU"/><use transform="matrix(0.05,0,0,0.05,74.85000000000001,0)" xlink:href="#bU"/><use transform="matrix(0.05,0,0,0.05,86.85000000000001,0)" xlink:href="#bm"/></g><path fill="#834187" d="M24 0v-248h52V0H24" id="bW"/><path fill="#834187" d="M135-194c87-1 58 113 63 194h-50c-7-57 23-157-34-157-59 0-34 97-39 157H25l-1-190h47c2 12-1 28 3 38 12-26 28-41 61-42" id="bX"/><path fill="#834187" d="M115-3C79 11 28 4 28-45v-112H4v-33h27l15-45h31v45h36v33H77v99c-1 23 16 31 38 25v30" id="bY"/><path fill="#834187" d="M185-48c-13 30-37 53-82 52C43 2 14-33 14-96s30-98 90-98c62 0 83 45 84 108H66c0 31 8 55 39 56 18 0 30-7 34-22zm-45-69c5-46-57-63-70-21-2 6-4 13-4 21h74" id="bZ"/><path fill="#834187" d="M135-150c-39-12-60 13-60 57V0H25l-1-190h47c2 13-1 29 3 40 6-28 27-53 61-41v41" id="ca"/><path fill="#834187" d="M190-63c-7 42-38 67-86 67-59 0-84-38-90-98-12-110 154-137 174-36l-49 2c-2-19-15-32-35-32-30 0-35 28-38 64-6 74 65 87 74 30" id="cb"/><path fill="#834187" d="M135-194c53 0 70 44 70 98 0 56-19 98-73 100-31 1-45-17-59-34 3 33 2 69 2 105H25l-1-265h48c2 10 0 23 3 31 11-24 29-35 60-35zM114-30c33 0 39-31 40-66 0-38-9-64-40-64-56 0-55 130 0 130" id="cc"/><g id="y"><use transform="matrix(0.05,0,0,0.05,0,0)" xlink:href="#bW"/><use transform="matrix(0.05,0,0,0.05,5,0)" xlink:href="#bX"/><use transform="matrix(0.05,0,0,0.05,15.950000000000001,0)" xlink:href="#bY"/><use transform="matrix(0.05,0,0,0.05,21.900000000000002,0)" xlink:href="#bZ"/><use transform="matrix(0.05,0,0,0.05,31.900000000000002,0)" xlink:href="#ca"/><use transform="matrix(0.05,0,0,0.05,38.900000000000006,0)" xlink:href="#cb"/><use transform="matrix(0.05,0,0,0.05,48.900000000000006,0)" xlink:href="#bZ"/><use transform="matrix(0.05,0,0,0.05,58.900000000000006,0)" xlink:href="#cc"/><use transform="matrix(0.05,0,0,0.05,69.85000000000001,0)" xlink:href="#bY"/></g><path fill="#834187" d="M128 0H69L1-190h53L99-40l48-150h52" id="cd"/><path fill="#834187" d="M137-138c1-29-70-34-71-4 15 46 118 7 119 86 1 83-164 76-172 9l43-7c4 19 20 25 44 25 33 8 57-30 24-41C81-84 22-81 20-136c-2-80 154-74 161-7" id="ce"/><g id="z"><use transform="matrix(0.05,0,0,0.05,0,0)" xlink:href="#bZ"/><use transform="matrix(0.05,0,0,0.05,10,0)" xlink:href="#cd"/><use transform="matrix(0.05,0,0,0.05,20,0)" xlink:href="#bZ"/><use transform="matrix(0.05,0,0,0.05,30,0)" xlink:href="#bX"/><use transform="matrix(0.05,0,0,0.05,40.95,0)" xlink:href="#bY"/><use transform="matrix(0.05,0,0,0.05,46.900000000000006,0)" xlink:href="#ce"/></g><path fill="#834187" d="M14-72v-43h91v43H14" id="cf"/><path fill="#834187" d="M110-194c64 0 96 36 96 99 0 64-35 99-97 99-61 0-95-36-95-99 0-62 34-99 96-99zm-1 164c35 0 45-28 45-65 0-40-10-65-43-65-34 0-45 26-45 65 0 36 10 65 43 65" id="cg"/><path fill="#834187" d="M85 4C-2 5 27-109 22-190h50c7 57-23 150 33 157 60-5 35-97 40-157h50l1 190h-47c-2-12 1-28-3-38-12 25-28 42-61 42" id="ch"/><path fill="#834187" d="M25-224v-37h50v37H25zM25 0v-190h50V0H25" id="ci"/><path fill="#834187" d="M195-6C206 82 75 100 31 46c-4-6-6-13-8-21l49-6c3 16 16 24 34 25 40 0 42-37 40-79-11 22-30 35-61 35-53 0-70-43-70-97 0-56 18-96 73-97 30 0 46 14 59 34l2-30h47zm-90-29c32 0 41-27 41-63 0-35-9-62-40-62-32 0-39 29-40 63 0 36 9 62 39 62" id="cj"/><g id="A"><use transform="matrix(0.05,0,0,0.05,0,0)" xlink:href="#cc"/><use transform="matrix(0.05,0,0,0.05,10.950000000000001,0)" xlink:href="#ca"/><use transform="matrix(0.05,0,0,0.05,17.950000000000003,0)" xlink:href="#bZ"/><use transform="matrix(0.05,0,0,0.05,27.950000000000003,0)" xlink:href="#cf"/><use transform="matrix(0.05,0,0,0.05,33.900000000000006,0)" xlink:href="#ca"/><use transform="matrix(0.05,0,0,0.05,40.900000000000006,0)" xlink:href="#cg"/><use transform="matrix(0.05,0,0,0.05,51.85,0)" xlink:href="#ch"/><use transform="matrix(0.05,0,0,0.05,62.80000000000001,0)" xlink:href="#bY"/><use transform="matrix(0.05,0,0,0.05,68.75000000000001,0)" xlink:href="#ci"/><use transform="matrix(0.05,0,0,0.05,73.75000000000001,0)" xlink:href="#bX"/><use transform="matrix(0.05,0,0,0.05,84.70000000000002,0)" xlink:href="#cj"/></g><path fill="#834187" d="M67-93c0 74 22 123 53 168H70C40 30 18-18 18-93s22-123 52-168h50c-32 44-53 94-53 168" id="ck"/><path fill="#834187" d="M84 4C32 4 15-41 15-95c0-55 18-99 73-99 29 0 47 12 58 34l2-30h48l-1 265h-49V-32C136-9 114 4 84 4zm21-34c32 0 41-29 41-66 0-36-9-64-40-64-33 0-39 30-40 65 0 43 13 65 39 65" id="cl"/><path fill="#834187" d="M4 7l51-268h42L46 7H4" id="cm"/><path fill="#834187" d="M114-157C55-157 80-60 75 0H25v-261h50l-1 109c12-26 28-41 61-42 86-1 58 113 63 194h-50c-7-57 23-157-34-157" id="cn"/><path fill="#834187" d="M102-93c0 74-22 123-52 168H0C30 29 54-18 53-93c0-74-22-123-53-168h50c30 45 52 94 52 168" id="co"/><g id="B"><use transform="matrix(0.05,0,0,0.05,0,0)" xlink:href="#ck"/><use transform="matrix(0.05,0,0,0.05,5.95,0)" xlink:href="#cc"/><use transform="matrix(0.05,0,0,0.05,16.900000000000002,0)" xlink:href="#ca"/><use transform="matrix(0.05,0,0,0.05,23.900000000000002,0)" xlink:href="#bZ"/><use transform="matrix(0.05,0,0,0.05,33.900000000000006,0)" xlink:href="#cf"/><use transform="matrix(0.05,0,0,0.05,39.85000000000001,0)" xlink:href="#ci"/><use transform="matrix(0.05,0,0,0.05,44.85000000000001,0)" xlink:href="#cl"/><use transform="matrix(0.05,0,0,0.05,55.80000000000001,0)" xlink:href="#cm"/><use transform="matrix(0.05,0,0,0.05,60.80000000000001,0)" xlink:href="#cn"/><use transform="matrix(0.05,0,0,0.05,71.75000000000001,0)" xlink:href="#cg"/><use transform="matrix(0.05,0,0,0.05,82.70000000000002,0)" xlink:href="#ce"/><use transform="matrix(0.05,0,0,0.05,92.70000000000002,0)" xlink:href="#bY"/><use transform="matrix(0.05,0,0,0.05,98.65000000000002,0)" xlink:href="#co"/></g><path fill="#0c7cba" d="M240-174c0 40-23 61-54 70L253 0h-59l-57-94H76V0H24v-248c93 4 217-23 216 74zM76-134c48-2 112 12 112-38 0-48-66-32-112-35v73" id="cp"/><path fill="#0c7cba" d="M110-194c64 0 96 36 96 99 0 64-35 99-97 99-61 0-95-36-95-99 0-62 34-99 96-99zm-1 164c35 0 45-28 45-65 0-40-10-65-43-65-34 0-45 26-45 65 0 36 10 65 43 65" id="cq"/><path fill="#0c7cba" d="M85 4C-2 5 27-109 22-190h50c7 57-23 150 33 157 60-5 35-97 40-157h50l1 190h-47c-2-12 1-28-3-38-12 25-28 42-61 42" id="cr"/><path fill="#0c7cba" d="M115-3C79 11 28 4 28-45v-112H4v-33h27l15-45h31v45h36v33H77v99c-1 23 16 31 38 25v30" id="cs"/><path fill="#0c7cba" d="M185-48c-13 30-37 53-82 52C43 2 14-33 14-96s30-98 90-98c62 0 83 45 84 108H66c0 31 8 55 39 56 18 0 30-7 34-22zm-45-69c5-46-57-63-70-21-2 6-4 13-4 21h74" id="ct"/><g id="C"><use transform="matrix(0.05,0,0,0.05,0,0)" xlink:href="#cp"/><use transform="matrix(0.05,0,0,0.05,12.950000000000001,0)" xlink:href="#cq"/><use transform="matrix(0.05,0,0,0.05,23.900000000000002,0)" xlink:href="#cr"/><use transform="matrix(0.05,0,0,0.05,34.85,0)" xlink:href="#cs"/><use transform="matrix(0.05,0,0,0.05,40.800000000000004,0)" xlink:href="#ct"/></g><path fill="#0c7cba" d="M128 0H69L1-190h53L99-40l48-150h52" id="cu"/><path fill="#0c7cba" d="M135-194c87-1 58 113 63 194h-50c-7-57 23-157-34-157-59 0-34 97-39 157H25l-1-190h47c2 12-1 28 3 38 12-26 28-41 61-42" id="cv"/><g id="D"><use transform="matrix(0.05,0,0,0.05,0,0)" xlink:href="#ct"/><use transform="matrix(0.05,0,0,0.05,10,0)" xlink:href="#cu"/><use transform="matrix(0.05,0,0,0.05,20,0)" xlink:href="#ct"/><use transform="matrix(0.05,0,0,0.05,30,0)" xlink:href="#cv"/><use transform="matrix(0.05,0,0,0.05,40.95,0)" xlink:href="#cs"/></g><g id="E"><use transform="matrix(0.05,0,0,0.05,0,0)" xlink:href="#cs"/><use transform="matrix(0.05,0,0,0.05,5.95,0)" xlink:href="#cq"/></g><path fill="#0c7cba" d="M133-34C117-15 103 5 69 4 32 3 11-16 11-54c-1-60 55-63 116-61 1-26-3-47-28-47-18 1-26 9-28 27l-52-2c7-38 36-58 82-57s74 22 75 68l1 82c-1 14 12 18 25 15v27c-30 8-71 5-69-32zm-48 3c29 0 43-24 42-57-32 0-66-3-65 30 0 17 8 27 23 27" id="cw"/><path fill="#0c7cba" d="M135-150c-39-12-60 13-60 57V0H25l-1-190h47c2 13-1 29 3 40 6-28 27-53 61-41v41" id="cx"/><path fill="#0c7cba" d="M195-6C206 82 75 100 31 46c-4-6-6-13-8-21l49-6c3 16 16 24 34 25 40 0 42-37 40-79-11 22-30 35-61 35-53 0-70-43-70-97 0-56 18-96 73-97 30 0 46 14 59 34l2-30h47zm-90-29c32 0 41-27 41-63 0-35-9-62-40-62-32 0-39 29-40 63 0 36 9 62 39 62" id="cy"/><g id="F"><use transform="matrix(0.05,0,0,0.05,0,0)" xlink:href="#cs"/><use transform="matrix(0.05,0,0,0.05,5.95,0)" xlink:href="#cw"/><use transform="matrix(0.05,0,0,0.05,15.949999999999998,0)" xlink:href="#cx"/><use transform="matrix(0.05,0,0,0.05,22.95,0)" xlink:href="#cy"/><use transform="matrix(0.05,0,0,0.05,33.9,0)" xlink:href="#ct"/><use transform="matrix(0.05,0,0,0.05,43.9,0)" xlink:href="#cs"/></g><path fill="#0c7cba" d="M88-194c31-1 46 15 58 34l-1-101h50l1 261h-48c-2-10 0-23-3-31C134-8 116 4 84 4 32 4 16-41 15-95c0-56 19-97 73-99zm17 164c33 0 40-30 41-66 1-37-9-64-41-64s-38 30-39 65c0 43 13 65 39 65" id="cz"/><path fill="#0c7cba" d="M137-138c1-29-70-34-71-4 15 46 118 7 119 86 1 83-164 76-172 9l43-7c4 19 20 25 44 25 33 8 57-30 24-41C81-84 22-81 20-136c-2-80 154-74 161-7" id="cA"/><path fill="#0c7cba" d="M25-224v-37h50v37H25zM25 0v-190h50V0H25" id="cB"/><g id="G"><use transform="matrix(0.05,0,0,0.05,0,0)" xlink:href="#cz"/><use transform="matrix(0.05,0,0,0.05,10.950000000000001,0)" xlink:href="#ct"/><use transform="matrix(0.05,0,0,0.05,20.950000000000003,0)" xlink:href="#cA"/><use transform="matrix(0.05,0,0,0.05,30.950000000000003,0)" xlink:href="#cs"/><use transform="matrix(0.05,0,0,0.05,36.900000000000006,0)" xlink:href="#cB"/><use transform="matrix(0.05,0,0,0.05,41.900000000000006,0)" xlink:href="#cv"/><use transform="matrix(0.05,0,0,0.05,52.85,0)" xlink:href="#cw"/><use transform="matrix(0.05,0,0,0.05,62.85,0)" xlink:href="#cs"/><use transform="matrix(0.05,0,0,0.05,68.80000000000001,0)" xlink:href="#cB"/><use transform="matrix(0.05,0,0,0.05,73.80000000000001,0)" xlink:href="#cq"/><use transform="matrix(0.05,0,0,0.05,84.75000000000001,0)" xlink:href="#cv"/></g><path fill="#c92d39" d="M240-174c0 40-23 61-54 70L253 0h-59l-57-94H76V0H24v-248c93 4 217-23 216 74zM76-134c48-2 112 12 112-38 0-48-66-32-112-35v73" id="cC"/><path fill="#c92d39" d="M185-48c-13 30-37 53-82 52C43 2 14-33 14-96s30-98 90-98c62 0 83 45 84 108H66c0 31 8 55 39 56 18 0 30-7 34-22zm-45-69c5-46-57-63-70-21-2 6-4 13-4 21h74" id="cD"/><path fill="#c92d39" d="M137-138c1-29-70-34-71-4 15 46 118 7 119 86 1 83-164 76-172 9l43-7c4 19 20 25 44 25 33 8 57-30 24-41C81-84 22-81 20-136c-2-80 154-74 161-7" id="cE"/><path fill="#c92d39" d="M135-194c53 0 70 44 70 98 0 56-19 98-73 100-31 1-45-17-59-34 3 33 2 69 2 105H25l-1-265h48c2 10 0 23 3 31 11-24 29-35 60-35zM114-30c33 0 39-31 40-66 0-38-9-64-40-64-56 0-55 130 0 130" id="cF"/><path fill="#c92d39" d="M110-194c64 0 96 36 96 99 0 64-35 99-97 99-61 0-95-36-95-99 0-62 34-99 96-99zm-1 164c35 0 45-28 45-65 0-40-10-65-43-65-34 0-45 26-45 65 0 36 10 65 43 65" id="cG"/><path fill="#c92d39" d="M135-194c87-1 58 113 63 194h-50c-7-57 23-157-34-157-59 0-34 97-39 157H25l-1-190h47c2 12-1 28 3 38 12-26 28-41 61-42" id="cH"/><path fill="#c92d39" d="M88-194c31-1 46 15 58 34l-1-101h50l1 261h-48c-2-10 0-23-3-31C134-8 116 4 84 4 32 4 16-41 15-95c0-56 19-97 73-99zm17 164c33 0 40-30 41-66 1-37-9-64-41-64s-38 30-39 65c0 43 13 65 39 65" id="cI"/><g id="H"><use transform="matrix(0.05,0,0,0.05,0,0)" xlink:href="#cC"/><use transform="matrix(0.05,0,0,0.05,12.950000000000001,0)" xlink:href="#cD"/><use transform="matrix(0.05,0,0,0.05,22.950000000000003,0)" xlink:href="#cE"/><use transform="matrix(0.05,0,0,0.05,32.95,0)" xlink:href="#cF"/><use transform="matrix(0.05,0,0,0.05,43.900000000000006,0)" xlink:href="#cG"/><use transform="matrix(0.05,0,0,0.05,54.85,0)" xlink:href="#cH"/><use transform="matrix(0.05,0,0,0.05,65.80000000000001,0)" xlink:href="#cI"/></g><path fill="#c92d39" d="M231 0h-52l-39-155L100 0H48L-1-190h46L77-45c9-52 24-97 36-145h53l37 145 32-145h46" id="cJ"/><path fill="#c92d39" d="M25-224v-37h50v37H25zM25 0v-190h50V0H25" id="cK"/><path fill="#c92d39" d="M115-3C79 11 28 4 28-45v-112H4v-33h27l15-45h31v45h36v33H77v99c-1 23 16 31 38 25v30" id="cL"/><path fill="#c92d39" d="M114-157C55-157 80-60 75 0H25v-261h50l-1 109c12-26 28-41 61-42 86-1 58 113 63 194h-50c-7-57 23-157-34-157" id="cM"/><g id="I"><use transform="matrix(0.05,0,0,0.05,0,0)" xlink:href="#cJ"/><use transform="matrix(0.05,0,0,0.05,14,0)" xlink:href="#cK"/><use transform="matrix(0.05,0,0,0.05,19,0)" xlink:href="#cL"/><use transform="matrix(0.05,0,0,0.05,24.95,0)" xlink:href="#cM"/></g><path fill="#c92d39" d="M135-150c-39-12-60 13-60 57V0H25l-1-190h47c2 13-1 29 3 40 6-28 27-53 61-41v41" id="cN"/><path fill="#c92d39" d="M128 0H69L1-190h53L99-40l48-150h52" id="cO"/><path fill="#c92d39" d="M133-34C117-15 103 5 69 4 32 3 11-16 11-54c-1-60 55-63 116-61 1-26-3-47-28-47-18 1-26 9-28 27l-52-2c7-38 36-58 82-57s74 22 75 68l1 82c-1 14 12 18 25 15v27c-30 8-71 5-69-32zm-48 3c29 0 43-24 42-57-32 0-66-3-65 30 0 17 8 27 23 27" id="cP"/><path fill="#c92d39" d="M14-72v-43h91v43H14" id="cQ"/><g id="J"><use transform="matrix(0.05,0,0,0.05,0,0)" xlink:href="#cN"/><use transform="matrix(0.05,0,0,0.05,7,0)" xlink:href="#cD"/><use transform="matrix(0.05,0,0,0.05,17,0)" xlink:href="#cE"/><use transform="matrix(0.05,0,0,0.05,27,0)" xlink:href="#cD"/><use transform="matrix(0.05,0,0,0.05,37,0)" xlink:href="#cN"/><use transform="matrix(0.05,0,0,0.05,44,0)" xlink:href="#cO"/><use transform="matrix(0.05,0,0,0.05,54,0)" xlink:href="#cP"/><use transform="matrix(0.05,0,0,0.05,64,0)" xlink:href="#cL"/><use transform="matrix(0.05,0,0,0.05,69.95,0)" xlink:href="#cK"/><use transform="matrix(0.05,0,0,0.05,74.95,0)" xlink:href="#cG"/><use transform="matrix(0.05,0,0,0.05,85.9,0)" xlink:href="#cH"/><use transform="matrix(0.05,0,0,0.05,96.85000000000001,0)" xlink:href="#cQ"/><use transform="matrix(0.05,0,0,0.05,102.80000000000001,0)" xlink:href="#cD"/><use transform="matrix(0.05,0,0,0.05,112.80000000000001,0)" xlink:href="#cN"/><use transform="matrix(0.05,0,0,0.05,119.80000000000001,0)" xlink:href="#cN"/><use transform="matrix(0.05,0,0,0.05,126.80000000000001,0)" xlink:href="#cG"/><use transform="matrix(0.05,0,0,0.05,137.75,0)" xlink:href="#cN"/></g><path fill="#b2b2b2" d="M169-182c-1-43-94-46-97-3 18 66 151 10 154 114 3 95-165 93-204 36-6-8-10-19-12-30l50-8c3 46 112 56 116 5-17-69-150-10-154-114-4-87 153-88 188-35 5 8 8 18 10 28" id="cR"/><path fill="#b2b2b2" d="M85 4C-2 5 27-109 22-190h50c7 57-23 150 33 157 60-5 35-97 40-157h50l1 190h-47c-2-12 1-28-3-38-12 25-28 42-61 42" id="cS"/><path fill="#b2b2b2" d="M135-194c53 0 70 44 70 98 0 56-19 98-73 100-31 1-45-17-59-34 3 33 2 69 2 105H25l-1-265h48c2 10 0 23 3 31 11-24 29-35 60-35zM114-30c33 0 39-31 40-66 0-38-9-64-40-64-56 0-55 130 0 130" id="cT"/><path fill="#b2b2b2" d="M135-150c-39-12-60 13-60 57V0H25l-1-190h47c2 13-1 29 3 40 6-28 27-53 61-41v41" id="cU"/><path fill="#b2b2b2" d="M185-48c-13 30-37 53-82 52C43 2 14-33 14-96s30-98 90-98c62 0 83 45 84 108H66c0 31 8 55 39 56 18 0 30-7 34-22zm-45-69c5-46-57-63-70-21-2 6-4 13-4 21h74" id="cV"/><path fill="#b2b2b2" d="M137-138c1-29-70-34-71-4 15 46 118 7 119 86 1 83-164 76-172 9l43-7c4 19 20 25 44 25 33 8 57-30 24-41C81-84 22-81 20-136c-2-80 154-74 161-7" id="cW"/><g id="K"><use transform="matrix(0.05,0,0,0.05,0,0)" xlink:href="#cR"/><use transform="matrix(0.05,0,0,0.05,12,0)" xlink:href="#cS"/><use transform="matrix(0.05,0,0,0.05,22.950000000000003,0)" xlink:href="#cT"/><use transform="matrix(0.05,0,0,0.05,33.900000000000006,0)" xlink:href="#cT"/><use transform="matrix(0.05,0,0,0.05,44.85000000000001,0)" xlink:href="#cU"/><use transform="matrix(0.05,0,0,0.05,51.85,0)" xlink:href="#cV"/><use transform="matrix(0.05,0,0,0.05,61.85,0)" xlink:href="#cW"/><use transform="matrix(0.05,0,0,0.05,71.85000000000001,0)" xlink:href="#cW"/></g><path fill="#b2b2b2" d="M110-194c64 0 96 36 96 99 0 64-35 99-97 99-61 0-95-36-95-99 0-62 34-99 96-99zm-1 164c35 0 45-28 45-65 0-40-10-65-43-65-34 0-45 26-45 65 0 36 10 65 43 65" id="cX"/><path fill="#b2b2b2" d="M115-3C79 11 28 4 28-45v-112H4v-33h27l15-45h31v45h36v33H77v99c-1 23 16 31 38 25v30" id="cY"/><path fill="#b2b2b2" d="M25-224v-37h50v37H25zM25 0v-190h50V0H25" id="cZ"/><path fill="#b2b2b2" d="M135-194c87-1 58 113 63 194h-50c-7-57 23-157-34-157-59 0-34 97-39 157H25l-1-190h47c2 12-1 28 3 38 12-26 28-41 61-42" id="da"/><path fill="#b2b2b2" d="M195-6C206 82 75 100 31 46c-4-6-6-13-8-21l49-6c3 16 16 24 34 25 40 0 42-37 40-79-11 22-30 35-61 35-53 0-70-43-70-97 0-56 18-96 73-97 30 0 46 14 59 34l2-30h47zm-90-29c32 0 41-27 41-63 0-35-9-62-40-62-32 0-39 29-40 63 0 36 9 62 39 62" id="db"/><g id="L"><use transform="matrix(0.05,0,0,0.05,0,0)" xlink:href="#cU"/><use transform="matrix(0.05,0,0,0.05,7,0)" xlink:href="#cX"/><use transform="matrix(0.05,0,0,0.05,17.950000000000003,0)" xlink:href="#cS"/><use transform="matrix(0.05,0,0,0.05,28.900000000000006,0)" xlink:href="#cY"/><use transform="matrix(0.05,0,0,0.05,34.85000000000001,0)" xlink:href="#cZ"/><use transform="matrix(0.05,0,0,0.05,39.85000000000001,0)" xlink:href="#da"/><use transform="matrix(0.05,0,0,0.05,50.80000000000001,0)" xlink:href="#db"/></g><path fill="#19967d" d="M205 0l-28-72H64L36 0H1l101-248h38L239 0h-34zm-38-99l-47-123c-12 45-31 82-46 123h93" id="dc"/><path fill="#19967d" d="M33 0v-248h34V0H33" id="dd"/><g id="M"><use transform="matrix(0.05,0,0,0.05,0,0)" xlink:href="#dc"/><use transform="matrix(0.05,0,0,0.05,12,0)" xlink:href="#bN"/><use transform="matrix(0.05,0,0,0.05,24,0)" xlink:href="#dd"/></g><path fill="#19967d" d="M24 0v-261h32V0H24" id="de"/><g id="N"><use transform="matrix(0.05,0,0,0.05,0,0)" xlink:href="#bM"/><use transform="matrix(0.05,0,0,0.05,9,0)" xlink:href="#bI"/><use transform="matrix(0.05,0,0,0.05,19,0)" xlink:href="#de"/><use transform="matrix(0.05,0,0,0.05,22.95,0)" xlink:href="#de"/></g><path fill="#19967d" d="M210-169c-67 3-38 105-44 169h-31v-121c0-29-5-50-35-48C34-165 62-65 56 0H25l-1-190h30c1 10-1 24 2 32 10-44 99-50 107 0 11-21 27-35 58-36 85-2 47 119 55 194h-31v-121c0-29-5-49-35-48" id="df"/><path fill="#19967d" d="M115-194c55 1 70 41 70 98S169 2 115 4C84 4 66-9 55-30l1 105H24l-1-265h31l2 30c10-21 28-34 59-34zm-8 174c40 0 45-34 45-75s-6-73-45-74c-42 0-51 32-51 76 0 43 10 73 51 73" id="dg"/><path fill="#19967d" d="M59-47c-2 24 18 29 38 22v24C64 9 27 4 27-40v-127H5v-23h24l9-43h21v43h35v23H59v120" id="dh"/><g id="O"><use transform="matrix(0.05,0,0,0.05,0,0)" xlink:href="#bM"/><use transform="matrix(0.05,0,0,0.05,9,0)" xlink:href="#bR"/><use transform="matrix(0.05,0,0,0.05,19,0)" xlink:href="#df"/><use transform="matrix(0.05,0,0,0.05,33.95,0)" xlink:href="#dg"/><use transform="matrix(0.05,0,0,0.05,43.95,0)" xlink:href="#de"/><use transform="matrix(0.05,0,0,0.05,47.900000000000006,0)" xlink:href="#bH"/><use transform="matrix(0.05,0,0,0.05,57.900000000000006,0)" xlink:href="#dh"/><use transform="matrix(0.05,0,0,0.05,62.900000000000006,0)" xlink:href="#bH"/></g><path d="M197 0v-115H63V0H30v-248h33v105h134v-105h34V0h-34" id="di"/><path d="M127-220V0H93v-220H8v-28h204v28h-85" id="dj"/><g id="P"><use transform="matrix(0.05,0,0,0.05,0,0)" xlink:href="#di"/><use transform="matrix(0.05,0,0,0.05,12.950000000000001,0)" xlink:href="#dj"/><use transform="matrix(0.05,0,0,0.05,23.900000000000002,0)" xlink:href="#dj"/><use transform="matrix(0.05,0,0,0.05,34.85,0)" xlink:href="#bw"/></g><path d="M101-251c82-7 93 87 43 132L82-64C71-53 59-42 53-27h129V0H18c2-99 128-94 128-182 0-28-16-43-45-43s-46 15-49 41l-32-3c6-41 34-60 81-64" id="dk"/><path d="M101-251c68 0 85 55 85 127S166 4 100 4C33 4 14-52 14-124c0-73 17-127 87-127zm-1 229c47 0 54-49 54-102s-4-102-53-102c-51 0-55 48-55 102 0 53 5 102 54 102" id="dl"/><path d="M0 4l72-265h28L28 4H0" id="dm"/><path d="M27 0v-27h64v-190l-56 39v-29l58-41h29v221h61V0H27" id="dn"/><g id="Q"><use transform="matrix(0.05,0,0,0.05,0,0)" xlink:href="#dk"/><use transform="matrix(0.05,0,0,0.05,10,0)" xlink:href="#dl"/><use transform="matrix(0.05,0,0,0.05,20,0)" xlink:href="#dl"/><use transform="matrix(0.05,0,0,0.05,30,0)" xlink:href="#dm"/><use transform="matrix(0.05,0,0,0.05,35,0)" xlink:href="#dk"/><use transform="matrix(0.05,0,0,0.05,45,0)" xlink:href="#dl"/><use transform="matrix(0.05,0,0,0.05,55,0)" xlink:href="#dn"/></g><path d="M155-56V0h-30v-56H8v-25l114-167h33v167h35v25h-35zm-30-156c-27 46-58 90-88 131h88v-131" id="do"/><path d="M99-251c64 0 84 50 84 122C183-37 130 33 47-8c-14-7-20-23-25-40l30-5c6 39 69 39 84 7 9-19 16-44 16-74-10 22-31 35-62 35-49 0-73-33-73-83 0-54 28-83 82-83zm-1 141c31-1 51-18 51-49 0-36-14-67-51-67-34 0-49 23-49 58 0 34 15 58 49 58" id="dp"/><g id="R"><use transform="matrix(0.05,0,0,0.05,0,0)" xlink:href="#do"/><use transform="matrix(0.05,0,0,0.05,10,0)" xlink:href="#dl"/><use transform="matrix(0.05,0,0,0.05,20,0)" xlink:href="#dp"/></g><path d="M140-251c81 0 123 46 123 126C263-46 219 4 140 4 59 4 17-45 17-125s42-126 123-126zm0 227c63 0 89-41 89-101s-29-99-89-99c-61 0-89 39-89 99S79-25 140-24" id="dq"/><path d="M106-169C34-169 62-67 57 0H25v-261h32l-1 103c12-21 28-36 61-36 89 0 53 116 60 194h-32v-121c2-32-8-49-39-48" id="dr"/><g id="S"><use transform="matrix(0.05,0,0,0.05,0,0)" xlink:href="#dq"/><use transform="matrix(0.05,0,0,0.05,14,0)" xlink:href="#bp"/><use transform="matrix(0.05,0,0,0.05,19,0)" xlink:href="#dr"/><use transform="matrix(0.05,0,0,0.05,29,0)" xlink:href="#bg"/><use transform="matrix(0.05,0,0,0.05,39,0)" xlink:href="#bh"/></g><g id="T"><use transform="matrix(0.05,0,0,0.05,0,0)" xlink:href="#bc"/><use transform="matrix(0.05,0,0,0.05,9,0)" xlink:href="#bd"/><use transform="matrix(0.05,0,0,0.05,19,0)" xlink:href="#bs"/><use transform="matrix(0.05,0,0,0.05,29,0)" xlink:href="#bg"/></g><g id="U"><use transform="matrix(0.05,0,0,0.05,0,0)" xlink:href="#bu"/><use transform="matrix(0.05,0,0,0.05,5.95,0)" xlink:href="#bd"/><use transform="matrix(0.05,0,0,0.05,15.949999999999998,0)" xlink:href="#bh"/></g><g id="V"><use transform="matrix(0.05,0,0,0.05,0,0)" xlink:href="#bp"/><use transform="matrix(0.05,0,0,0.05,5,0)" xlink:href="#bi"/><use transform="matrix(0.05,0,0,0.05,8.95,0)" xlink:href="#bn"/><use transform="matrix(0.05,0,0,0.05,23.9,0)" xlink:href="#bg"/><use transform="matrix(0.05,0,0,0.05,33.9,0)" xlink:href="#bs"/></g><g id="W"><use transform="matrix(0.05,0,0,0.05,0,0)" xlink:href="#bd"/><use transform="matrix(0.05,0,0,0.05,10,0)" xlink:href="#bk"/><use transform="matrix(0.05,0,0,0.05,20,0)" xlink:href="#bp"/><use transform="matrix(0.05,0,0,0.05,25,0)" xlink:href="#bC"/></g><g id="X"><use transform="matrix(0.05,0,0,0.05,0,0)" xlink:href="#bI"/><use transform="matrix(0.05,0,0,0.05,10,0)" xlink:href="#bJ"/><use transform="matrix(0.05,0,0,0.05,19,0)" xlink:href="#bK"/><use transform="matrix(0.05,0,0,0.05,28,0)" xlink:href="#bL"/><use transform="matrix(0.05,0,0,0.05,38,0)" xlink:href="#bM"/></g><path fill="#19967d" d="M143 4C61 4 22-44 18-125c-5-107 100-154 193-111 17 8 29 25 37 43l-32 9c-13-25-37-40-76-40-61 0-88 39-88 99 0 61 29 100 91 101 35 0 62-11 79-27v-45h-74v-28h105v86C228-13 192 4 143 4" id="ds"/><path fill="#19967d" d="M30 0v-248h187v28H63v79h144v27H63v87h162V0H30" id="dt"/><g id="Y"><use transform="matrix(0.05,0,0,0.05,0,0)" xlink:href="#ds"/><use transform="matrix(0.05,0,0,0.05,14,0)" xlink:href="#dt"/><use transform="matrix(0.05,0,0,0.05,26,0)" xlink:href="#bD"/></g><path fill="#19967d" d="M18-100v-36l175-74v27L42-118l151 64v27" id="du"/><path fill="#19967d" d="M85-194c31 0 48 13 60 33l-1-100h32l1 261h-30c-2-10 0-23-3-31C134-8 116 4 85 4 32 4 16-35 15-94c0-66 23-100 70-100zm9 24c-40 0-46 34-46 75 0 40 6 74 45 74 42 0 51-32 51-76 0-42-9-74-50-73" id="dv"/><path fill="#19967d" d="M18-27v-27l151-64-151-65v-27l175 74v36" id="dw"/><g id="Z"><use transform="matrix(0.05,0,0,0.05,0,0)" xlink:href="#bQ"/><use transform="matrix(0.05,0,0,0.05,5,0)" xlink:href="#bM"/><use transform="matrix(0.05,0,0,0.05,14,0)" xlink:href="#bR"/><use transform="matrix(0.05,0,0,0.05,24,0)" xlink:href="#bL"/><use transform="matrix(0.05,0,0,0.05,34,0)" xlink:href="#bS"/><use transform="matrix(0.05,0,0,0.05,39,0)" xlink:href="#bH"/><use transform="matrix(0.05,0,0,0.05,49,0)" xlink:href="#bE"/><use transform="matrix(0.05,0,0,0.05,54.95,0)" xlink:href="#bH"/><use transform="matrix(0.05,0,0,0.05,64.95,0)" xlink:href="#bL"/><use transform="matrix(0.05,0,0,0.05,74.95,0)" xlink:href="#bM"/><use transform="matrix(0.05,0,0,0.05,83.95,0)" xlink:href="#bH"/><use transform="matrix(0.05,0,0,0.05,93.95,0)" xlink:href="#bQ"/><use transform="matrix(0.05,0,0,0.05,98.95,0)" xlink:href="#du"/><use transform="matrix(0.05,0,0,0.05,109.45,0)" xlink:href="#bF"/><use transform="matrix(0.05,0,0,0.05,113.4,0)" xlink:href="#dv"/><use transform="matrix(0.05,0,0,0.05,123.4,0)" xlink:href="#dw"/></g><path fill="#0c7cba" d="M63-220v92h138v28H63V0H30v-248h175v28H63" id="dx"/><path fill="#0c7cba" d="M100-194c62-1 85 37 85 99 1 63-27 99-86 99S16-35 15-95c0-66 28-99 85-99zM99-20c44 1 53-31 53-75 0-43-8-75-51-75s-53 32-53 75 10 74 51 75" id="dy"/><path fill="#0c7cba" d="M114-163C36-179 61-72 57 0H25l-1-190h30c1 12-1 29 2 39 6-27 23-49 58-41v29" id="dz"/><g id="aa"><use transform="matrix(0.05,0,0,0.05,0,0)" xlink:href="#dx"/><use transform="matrix(0.05,0,0,0.05,10.950000000000001,0)" xlink:href="#dy"/><use transform="matrix(0.05,0,0,0.05,20.950000000000003,0)" xlink:href="#dz"/></g><path fill="#0c7cba" d="M100-194c63 0 86 42 84 106H49c0 40 14 67 53 68 26 1 43-12 49-29l28 8c-11 28-37 45-77 45C44 4 14-33 15-96c1-61 26-98 85-98zm52 81c6-60-76-77-97-28-3 7-6 17-6 28h103" id="dA"/><path fill="#0c7cba" d="M141-36C126-15 110 5 73 4 37 3 15-17 15-53c-1-64 63-63 125-63 3-35-9-54-41-54-24 1-41 7-42 31l-33-3c5-37 33-52 76-52 45 0 72 20 72 64v82c-1 20 7 32 28 27v20c-31 9-61-2-59-35zM48-53c0 20 12 33 32 33 41-3 63-29 60-74-43 2-92-5-92 41" id="dB"/><path fill="#0c7cba" d="M96-169c-40 0-48 33-48 73s9 75 48 75c24 0 41-14 43-38l32 2c-6 37-31 61-74 61-59 0-76-41-82-99-10-93 101-131 147-64 4 7 5 14 7 22l-32 3c-4-21-16-35-41-35" id="dC"/><path fill="#0c7cba" d="M106-169C34-169 62-67 57 0H25v-261h32l-1 103c12-21 28-36 61-36 89 0 53 116 60 194h-32v-121c2-32-8-49-39-48" id="dD"/><g id="ab"><use transform="matrix(0.05,0,0,0.05,0,0)" xlink:href="#dA"/><use transform="matrix(0.05,0,0,0.05,10,0)" xlink:href="#dB"/><use transform="matrix(0.05,0,0,0.05,20,0)" xlink:href="#dC"/><use transform="matrix(0.05,0,0,0.05,29,0)" xlink:href="#dD"/></g><path fill="#0c7cba" d="M117-194c89-4 53 116 60 194h-32v-121c0-31-8-49-39-48C34-167 62-67 57 0H25l-1-190h30c1 10-1 24 2 32 11-22 29-35 61-36" id="dE"/><path fill="#0c7cba" d="M145-31C134-9 116 4 85 4 32 4 16-35 15-94c0-59 17-99 70-100 32-1 48 14 60 33 0-11-1-24 2-32h30l-1 268h-32zM93-21c41 0 51-33 51-76s-8-73-50-73c-40 0-46 35-46 75s5 74 45 74" id="dF"/><path fill="#0c7cba" d="M84 4C-5 8 30-112 23-190h32v120c0 31 7 50 39 49 72-2 45-101 50-169h31l1 190h-30c-1-10 1-25-2-33-11 22-28 36-60 37" id="dG"/><path fill="#0c7cba" d="M85-194c31 0 48 13 60 33l-1-100h32l1 261h-30c-2-10 0-23-3-31C134-8 116 4 85 4 32 4 16-35 15-94c0-66 23-100 70-100zm9 24c-40 0-46 34-46 75 0 40 6 74 45 74 42 0 51-32 51-76 0-42-9-74-50-73" id="dH"/><g id="ac"><use transform="matrix(0.05,0,0,0.05,0,0)" xlink:href="#dA"/><use transform="matrix(0.05,0,0,0.05,10,0)" xlink:href="#dE"/><use transform="matrix(0.05,0,0,0.05,20,0)" xlink:href="#dF"/><use transform="matrix(0.05,0,0,0.05,30,0)" xlink:href="#dG"/><use transform="matrix(0.05,0,0,0.05,40,0)" xlink:href="#dA"/><use transform="matrix(0.05,0,0,0.05,50,0)" xlink:href="#dG"/><use transform="matrix(0.05,0,0,0.05,60,0)" xlink:href="#dA"/><use transform="matrix(0.05,0,0,0.05,70,0)" xlink:href="#dH"/></g><path fill="#0c7cba" d="M108 0H70L1-190h34L89-25l56-165h34" id="dI"/><path fill="#0c7cba" d="M59-47c-2 24 18 29 38 22v24C64 9 27 4 27-40v-127H5v-23h24l9-43h21v43h35v23H59v120" id="dJ"/><path fill="#0c7cba" d="M68-38c1 34 0 65-14 84H32c9-13 17-26 17-46H33v-38h35" id="dK"/><g id="ad"><use transform="matrix(0.05,0,0,0.05,0,0)" xlink:href="#dA"/><use transform="matrix(0.05,0,0,0.05,10,0)" xlink:href="#dI"/><use transform="matrix(0.05,0,0,0.05,19,0)" xlink:href="#dA"/><use transform="matrix(0.05,0,0,0.05,29,0)" xlink:href="#dE"/><use transform="matrix(0.05,0,0,0.05,39,0)" xlink:href="#dJ"/><use transform="matrix(0.05,0,0,0.05,44,0)" xlink:href="#dK"/></g><g id="ae"><use transform="matrix(0.05,0,0,0.05,0,0)" xlink:href="#cx"/><use transform="matrix(0.05,0,0,0.05,7,0)" xlink:href="#cq"/><use transform="matrix(0.05,0,0,0.05,17.950000000000003,0)" xlink:href="#cr"/><use transform="matrix(0.05,0,0,0.05,28.900000000000006,0)" xlink:href="#cs"/><use transform="matrix(0.05,0,0,0.05,34.85000000000001,0)" xlink:href="#ct"/></g><g id="af"><use transform="matrix(0.05,0,0,0.05,0,0)" xlink:href="#cs"/><use transform="matrix(0.05,0,0,0.05,5.95,0)" xlink:href="#cq"/></g><g id="ag"><use transform="matrix(0.05,0,0,0.05,0,0)" xlink:href="#cB"/><use transform="matrix(0.05,0,0,0.05,5,0)" xlink:href="#cv"/><use transform="matrix(0.05,0,0,0.05,15.950000000000001,0)" xlink:href="#cs"/><use transform="matrix(0.05,0,0,0.05,21.900000000000002,0)" xlink:href="#ct"/><use transform="matrix(0.05,0,0,0.05,31.900000000000002,0)" xlink:href="#cv"/><use transform="matrix(0.05,0,0,0.05,42.85,0)" xlink:href="#cz"/><use transform="matrix(0.05,0,0,0.05,53.800000000000004,0)" xlink:href="#ct"/><use transform="matrix(0.05,0,0,0.05,63.800000000000004,0)" xlink:href="#cz"/></g><path fill="#c92d39" d="M63-220v92h138v28H63V0H30v-248h175v28H63" id="dL"/><path fill="#c92d39" d="M100-194c62-1 85 37 85 99 1 63-27 99-86 99S16-35 15-95c0-66 28-99 85-99zM99-20c44 1 53-31 53-75 0-43-8-75-51-75s-53 32-53 75 10 74 51 75" id="dM"/><path fill="#c92d39" d="M114-163C36-179 61-72 57 0H25l-1-190h30c1 12-1 29 2 39 6-27 23-49 58-41v29" id="dN"/><g id="ah"><use transform="matrix(0.05,0,0,0.05,0,0)" xlink:href="#dL"/><use transform="matrix(0.05,0,0,0.05,10.950000000000001,0)" xlink:href="#dM"/><use transform="matrix(0.05,0,0,0.05,20.950000000000003,0)" xlink:href="#dN"/></g><path fill="#c92d39" d="M100-194c63 0 86 42 84 106H49c0 40 14 67 53 68 26 1 43-12 49-29l28 8c-11 28-37 45-77 45C44 4 14-33 15-96c1-61 26-98 85-98zm52 81c6-60-76-77-97-28-3 7-6 17-6 28h103" id="dO"/><path fill="#c92d39" d="M141-36C126-15 110 5 73 4 37 3 15-17 15-53c-1-64 63-63 125-63 3-35-9-54-41-54-24 1-41 7-42 31l-33-3c5-37 33-52 76-52 45 0 72 20 72 64v82c-1 20 7 32 28 27v20c-31 9-61-2-59-35zM48-53c0 20 12 33 32 33 41-3 63-29 60-74-43 2-92-5-92 41" id="dP"/><path fill="#c92d39" d="M96-169c-40 0-48 33-48 73s9 75 48 75c24 0 41-14 43-38l32 2c-6 37-31 61-74 61-59 0-76-41-82-99-10-93 101-131 147-64 4 7 5 14 7 22l-32 3c-4-21-16-35-41-35" id="dQ"/><path fill="#c92d39" d="M106-169C34-169 62-67 57 0H25v-261h32l-1 103c12-21 28-36 61-36 89 0 53 116 60 194h-32v-121c2-32-8-49-39-48" id="dR"/><g id="ai"><use transform="matrix(0.05,0,0,0.05,0,0)" xlink:href="#dO"/><use transform="matrix(0.05,0,0,0.05,10,0)" xlink:href="#dP"/><use transform="matrix(0.05,0,0,0.05,20,0)" xlink:href="#dQ"/><use transform="matrix(0.05,0,0,0.05,29,0)" xlink:href="#dR"/></g><path fill="#c92d39" d="M117-194c89-4 53 116 60 194h-32v-121c0-31-8-49-39-48C34-167 62-67 57 0H25l-1-190h30c1 10-1 24 2 32 11-22 29-35 61-36" id="dS"/><path fill="#c92d39" d="M145-31C134-9 116 4 85 4 32 4 16-35 15-94c0-59 17-99 70-100 32-1 48 14 60 33 0-11-1-24 2-32h30l-1 268h-32zM93-21c41 0 51-33 51-76s-8-73-50-73c-40 0-46 35-46 75s5 74 45 74" id="dT"/><path fill="#c92d39" d="M84 4C-5 8 30-112 23-190h32v120c0 31 7 50 39 49 72-2 45-101 50-169h31l1 190h-30c-1-10 1-25-2-33-11 22-28 36-60 37" id="dU"/><path fill="#c92d39" d="M85-194c31 0 48 13 60 33l-1-100h32l1 261h-30c-2-10 0-23-3-31C134-8 116 4 85 4 32 4 16-35 15-94c0-66 23-100 70-100zm9 24c-40 0-46 34-46 75 0 40 6 74 45 74 42 0 51-32 51-76 0-42-9-74-50-73" id="dV"/><g id="aj"><use transform="matrix(0.05,0,0,0.05,0,0)" xlink:href="#dO"/><use transform="matrix(0.05,0,0,0.05,10,0)" xlink:href="#dS"/><use transform="matrix(0.05,0,0,0.05,20,0)" xlink:href="#dT"/><use transform="matrix(0.05,0,0,0.05,30,0)" xlink:href="#dU"/><use transform="matrix(0.05,0,0,0.05,40,0)" xlink:href="#dO"/><use transform="matrix(0.05,0,0,0.05,50,0)" xlink:href="#dU"/><use transform="matrix(0.05,0,0,0.05,60,0)" xlink:href="#dO"/><use transform="matrix(0.05,0,0,0.05,70,0)" xlink:href="#dV"/></g><path fill="#c92d39" d="M108 0H70L1-190h34L89-25l56-165h34" id="dW"/><path fill="#c92d39" d="M59-47c-2 24 18 29 38 22v24C64 9 27 4 27-40v-127H5v-23h24l9-43h21v43h35v23H59v120" id="dX"/><path fill="#c92d39" d="M68-38c1 34 0 65-14 84H32c9-13 17-26 17-46H33v-38h35" id="dY"/><g id="ak"><use transform="matrix(0.05,0,0,0.05,0,0)" xlink:href="#dO"/><use transform="matrix(0.05,0,0,0.05,10,0)" xlink:href="#dW"/><use transform="matrix(0.05,0,0,0.05,19,0)" xlink:href="#dO"/><use transform="matrix(0.05,0,0,0.05,29,0)" xlink:href="#dS"/><use transform="matrix(0.05,0,0,0.05,39,0)" xlink:href="#dX"/><use transform="matrix(0.05,0,0,0.05,44,0)" xlink:href="#dY"/></g><g id="al"><use transform="matrix(0.05,0,0,0.05,0,0)" xlink:href="#cN"/><use transform="matrix(0.05,0,0,0.05,7,0)" xlink:href="#cD"/><use transform="matrix(0.05,0,0,0.05,17,0)" xlink:href="#cE"/><use transform="matrix(0.05,0,0,0.05,27,0)" xlink:href="#cF"/><use transform="matrix(0.05,0,0,0.05,37.95,0)" xlink:href="#cG"/><use transform="matrix(0.05,0,0,0.05,48.900000000000006,0)" xlink:href="#cH"/><use transform="matrix(0.05,0,0,0.05,59.85,0)" xlink:href="#cI"/></g><g id="am"><use transform="matrix(0.05,0,0,0.05,0,0)" xlink:href="#cJ"/><use transform="matrix(0.05,0,0,0.05,14,0)" xlink:href="#cK"/><use transform="matrix(0.05,0,0,0.05,19,0)" xlink:href="#cL"/><use transform="matrix(0.05,0,0,0.05,24.95,0)" xlink:href="#cM"/></g><g id="an"><use transform="matrix(0.05,0,0,0.05,0,0)" xlink:href="#bl"/><use transform="matrix(0.05,0,0,0.05,9,0)" xlink:href="#bg"/><use transform="matrix(0.05,0,0,0.05,19,0)" xlink:href="#bp"/></g><g id="ao"><use transform="matrix(0.05,0,0,0.05,0,0)" xlink:href="#bl"/><use transform="matrix(0.05,0,0,0.05,9,0)" xlink:href="#bp"/><use transform="matrix(0.05,0,0,0.05,14,0)" xlink:href="#br"/><use transform="matrix(0.05,0,0,0.05,24,0)" xlink:href="#bp"/><use transform="matrix(0.05,0,0,0.05,29,0)" xlink:href="#bk"/><use transform="matrix(0.05,0,0,0.05,39,0)" xlink:href="#bl"/><use transform="matrix(0.05,0,0,0.05,48,0)" xlink:href="#bv"/><use transform="matrix(0.05,0,0,0.05,58.5,0)" xlink:href="#bU"/><use transform="matrix(0.05,0,0,0.05,70.5,0)" xlink:href="#bV"/><use transform="matrix(0.05,0,0,0.05,83.45,0)" xlink:href="#bt"/><use transform="matrix(0.05,0,0,0.05,96.4,0)" xlink:href="#bt"/><use transform="matrix(0.05,0,0,0.05,109.35000000000001,0)" xlink:href="#bx"/><use transform="matrix(0.05,0,0,0.05,121.35000000000001,0)" xlink:href="#bU"/><use transform="matrix(0.05,0,0,0.05,133.35000000000002,0)" xlink:href="#bU"/></g><g id="ap"><use transform="matrix(0.05,0,0,0.05,0,0)" xlink:href="#bl"/><use transform="matrix(0.05,0,0,0.05,9,0)" xlink:href="#bg"/><use transform="matrix(0.05,0,0,0.05,19,0)" xlink:href="#bp"/></g><path d="M63-220v92h138v28H63V0H30v-248h175v28H63" id="dZ"/><path d="M205 0l-28-72H64L36 0H1l101-248h38L239 0h-34zm-38-99l-47-123c-12 45-31 82-46 123h93" id="ea"/><path d="M30 0v-248h33v221h125V0H30" id="eb"/><g id="aq"><use transform="matrix(0.05,0,0,0.05,0,0)" xlink:href="#bl"/><use transform="matrix(0.05,0,0,0.05,9,0)" xlink:href="#bp"/><use transform="matrix(0.05,0,0,0.05,14,0)" xlink:href="#br"/><use transform="matrix(0.05,0,0,0.05,24,0)" xlink:href="#bp"/><use transform="matrix(0.05,0,0,0.05,29,0)" xlink:href="#bk"/><use transform="matrix(0.05,0,0,0.05,39,0)" xlink:href="#bl"/><use transform="matrix(0.05,0,0,0.05,48,0)" xlink:href="#bv"/><use transform="matrix(0.05,0,0,0.05,58.5,0)" xlink:href="#dZ"/><use transform="matrix(0.05,0,0,0.05,68.45,0)" xlink:href="#ea"/><use transform="matrix(0.05,0,0,0.05,80.45,0)" xlink:href="#bA"/><use transform="matrix(0.05,0,0,0.05,85.45,0)" xlink:href="#eb"/><use transform="matrix(0.05,0,0,0.05,95.45,0)" xlink:href="#bx"/><use transform="matrix(0.05,0,0,0.05,107.45,0)" xlink:href="#bz"/></g><path d="M115-194c55 1 70 41 70 98S169 2 115 4C84 4 66-9 55-30l1 105H24l-1-265h31l2 30c10-21 28-34 59-34zm-8 174c40 0 45-34 45-75s-6-73-45-74c-42 0-51 32-51 76 0 43 10 73 51 73" id="ec"/><g id="ar"><use transform="matrix(0.05,0,0,0.05,0,0)" xlink:href="#bV"/><use transform="matrix(0.05,0,0,0.05,12.950000000000001,0)" xlink:href="#ec"/><use transform="matrix(0.05,0,0,0.05,22.950000000000003,0)" xlink:href="#bs"/><use transform="matrix(0.05,0,0,0.05,32.95,0)" xlink:href="#br"/><use transform="matrix(0.05,0,0,0.05,42.95,0)" xlink:href="#bp"/><use transform="matrix(0.05,0,0,0.05,47.95,0)" xlink:href="#bg"/></g><path d="M-5 72V49h209v23H-5" id="ed"/><g id="as"><use transform="matrix(0.05,0,0,0.05,0,0)" xlink:href="#bg"/><use transform="matrix(0.05,0,0,0.05,10,0)" xlink:href="#bo"/><use transform="matrix(0.05,0,0,0.05,19,0)" xlink:href="#ec"/><use transform="matrix(0.05,0,0,0.05,29,0)" xlink:href="#bi"/><use transform="matrix(0.05,0,0,0.05,32.95,0)" xlink:href="#bh"/><use transform="matrix(0.05,0,0,0.05,38.900000000000006,0)" xlink:href="#bg"/><use transform="matrix(0.05,0,0,0.05,48.900000000000006,0)" xlink:href="#bl"/><use transform="matrix(0.05,0,0,0.05,57.900000000000006,0)" xlink:href="#ed"/><use transform="matrix(0.05,0,0,0.05,67.9,0)" xlink:href="#br"/><use transform="matrix(0.05,0,0,0.05,77.9,0)" xlink:href="#bp"/></g><path d="M115-194c53 0 69 39 70 98 0 66-23 100-70 100C84 3 66-7 56-30L54 0H23l1-261h32v101c10-23 28-34 59-34zm-8 174c40 0 45-34 45-75 0-40-5-75-45-74-42 0-51 32-51 76 0 43 10 73 51 73" id="ee"/><g id="at"><use transform="matrix(0.05,0,0,0.05,0,0)" xlink:href="#ee"/><use transform="matrix(0.05,0,0,0.05,10,0)" xlink:href="#br"/><use transform="matrix(0.05,0,0,0.05,20,0)" xlink:href="#bl"/><use transform="matrix(0.05,0,0,0.05,29,0)" xlink:href="#bg"/><use transform="matrix(0.05,0,0,0.05,39,0)" xlink:href="#bs"/></g><g id="au"><use transform="matrix(0.05,0,0,0.05,0,0)" xlink:href="#bd"/><use transform="matrix(0.05,0,0,0.05,10,0)" xlink:href="#be"/></g><g id="av"><use transform="matrix(0.05,0,0,0.05,0,0)" xlink:href="#bh"/><use transform="matrix(0.05,0,0,0.05,5.95,0)" xlink:href="#bg"/><use transform="matrix(0.05,0,0,0.05,15.949999999999998,0)" xlink:href="#bp"/><use transform="matrix(0.05,0,0,0.05,20.95,0)" xlink:href="#bk"/><use transform="matrix(0.05,0,0,0.05,30.950000000000003,0)" xlink:href="#bh"/><use transform="matrix(0.05,0,0,0.05,36.9,0)" xlink:href="#be"/><use transform="matrix(0.05,0,0,0.05,46.9,0)" xlink:href="#bg"/><use transform="matrix(0.05,0,0,0.05,56.900000000000006,0)" xlink:href="#bs"/></g><g id="aw"><use transform="matrix(0.05,0,0,0.05,0,0)" xlink:href="#bl"/><use transform="matrix(0.05,0,0,0.05,9,0)" xlink:href="#bp"/><use transform="matrix(0.05,0,0,0.05,14,0)" xlink:href="#br"/><use transform="matrix(0.05,0,0,0.05,24,0)" xlink:href="#bh"/><use transform="matrix(0.05,0,0,0.05,29.950000000000003,0)" xlink:href="#bp"/><use transform="matrix(0.05,0,0,0.05,34.95,0)" xlink:href="#ed"/><use transform="matrix(0.05,0,0,0.05,44.95,0)" xlink:href="#bp"/><use transform="matrix(0.05,0,0,0.05,49.95,0)" xlink:href="#bi"/><use transform="matrix(0.05,0,0,0.05,53.900000000000006,0)" xlink:href="#bn"/><use transform="matrix(0.05,0,0,0.05,68.85000000000001,0)" xlink:href="#bg"/></g><g id="ax"><use transform="matrix(0.05,0,0,0.05,0,0)" xlink:href="#br"/><use transform="matrix(0.05,0,0,0.05,10,0)" xlink:href="#be"/><use transform="matrix(0.05,0,0,0.05,20,0)" xlink:href="#bs"/></g><g id="ay"><use transform="matrix(0.05,0,0,0.05,0,0)" xlink:href="#bs"/><use transform="matrix(0.05,0,0,0.05,10,0)" xlink:href="#bk"/><use transform="matrix(0.05,0,0,0.05,20,0)" xlink:href="#bh"/><use transform="matrix(0.05,0,0,0.05,25.950000000000003,0)" xlink:href="#br"/><use transform="matrix(0.05,0,0,0.05,35.95,0)" xlink:href="#bp"/><use transform="matrix(0.05,0,0,0.05,40.95,0)" xlink:href="#bi"/><use transform="matrix(0.05,0,0,0.05,44.900000000000006,0)" xlink:href="#bd"/><use transform="matrix(0.05,0,0,0.05,54.900000000000006,0)" xlink:href="#be"/></g><g id="az"><use transform="matrix(0.05,0,0,0.05,0,0)" xlink:href="#bp"/><use transform="matrix(0.05,0,0,0.05,5,0)" xlink:href="#bd"/></g><path d="M206 0h-36l-40-164L89 0H53L-1-190h32L70-26l43-164h34l41 164 42-164h31" id="ef"/><g id="aA"><use transform="matrix(0.05,0,0,0.05,0,0)" xlink:href="#bu"/><use transform="matrix(0.05,0,0,0.05,5.95,0)" xlink:href="#be"/><use transform="matrix(0.05,0,0,0.05,15.949999999999998,0)" xlink:href="#bd"/><use transform="matrix(0.05,0,0,0.05,25.950000000000003,0)" xlink:href="#ef"/></g><path d="M118-107v75H92v-75H18v-26h74v-75h26v75h74v26h-74" id="eg"/><use transform="matrix(0.05,0,0,0.05,0,0)" xlink:href="#eg" id="aB"/><path d="M126-127c33 6 58 20 58 59 0 88-139 92-164 29-3-8-5-16-6-25l32-3c6 27 21 44 54 44 32 0 52-15 52-46 0-38-36-46-79-43v-28c39 1 72-4 72-42 0-27-17-43-46-43-28 0-47 15-49 41l-32-3c6-42 35-63 81-64 48-1 79 21 79 65 0 36-21 52-52 59" id="eh"/><g id="aC"><use transform="matrix(0.05,0,0,0.05,0,0)" xlink:href="#eh"/><use transform="matrix(0.05,0,0,0.05,10,0)" xlink:href="#dl"/><use transform="matrix(0.05,0,0,0.05,20,0)" xlink:href="#bC"/></g><path d="M24 0v-261h32V0H24" id="ei"/><g id="aD"><use transform="matrix(0.05,0,0,0.05,0,0)" xlink:href="#bz"/><use transform="matrix(0.05,0,0,0.05,12.950000000000001,0)" xlink:href="#bg"/><use transform="matrix(0.05,0,0,0.05,22.950000000000003,0)" xlink:href="#ei"/><use transform="matrix(0.05,0,0,0.05,26.900000000000002,0)" xlink:href="#bg"/><use transform="matrix(0.05,0,0,0.05,36.900000000000006,0)" xlink:href="#bp"/><use transform="matrix(0.05,0,0,0.05,41.900000000000006,0)" xlink:href="#bg"/></g><g id="aE"><use transform="matrix(0.05,0,0,0.05,0,0)" xlink:href="#bh"/><use transform="matrix(0.05,0,0,0.05,5.95,0)" xlink:href="#bg"/><use transform="matrix(0.05,0,0,0.05,15.949999999999998,0)" xlink:href="#bl"/><use transform="matrix(0.05,0,0,0.05,24.95,0)" xlink:href="#bg"/><use transform="matrix(0.05,0,0,0.05,34.95,0)" xlink:href="#bh"/><use transform="matrix(0.05,0,0,0.05,40.900000000000006,0)" xlink:href="#bq"/><use transform="matrix(0.05,0,0,0.05,49.900000000000006,0)" xlink:href="#br"/><use transform="matrix(0.05,0,0,0.05,59.900000000000006,0)" xlink:href="#bp"/><use transform="matrix(0.05,0,0,0.05,64.9,0)" xlink:href="#bi"/><use transform="matrix(0.05,0,0,0.05,68.85000000000001,0)" xlink:href="#bd"/><use transform="matrix(0.05,0,0,0.05,78.85000000000001,0)" xlink:href="#be"/></g><g id="aF"><use transform="matrix(0.05,0,0,0.05,0,0)" xlink:href="#bs"/><use transform="matrix(0.05,0,0,0.05,10,0)" xlink:href="#br"/><use transform="matrix(0.05,0,0,0.05,20,0)" xlink:href="#bp"/><use transform="matrix(0.05,0,0,0.05,25,0)" xlink:href="#br"/></g><g id="aG"><use transform="matrix(0.05,0,0,0.05,0,0)" xlink:href="#bh"/><use transform="matrix(0.05,0,0,0.05,5.95,0)" xlink:href="#bd"/><use transform="matrix(0.05,0,0,0.05,15.949999999999998,0)" xlink:href="#bd"/><use transform="matrix(0.05,0,0,0.05,25.950000000000003,0)" xlink:href="#bn"/></g><path fill="#19967d" d="M30-248c118-7 216 8 213 122C240-48 200 0 122 0H30v-248zM63-27c89 8 146-16 146-99s-60-101-146-95v194" id="ej"/><path fill="#19967d" d="M30 0v-248h33v221h125V0H30" id="ek"/><g id="aH"><use transform="matrix(0.05,0,0,0.05,0,0)" xlink:href="#ej"/><use transform="matrix(0.05,0,0,0.05,12.950000000000001,0)" xlink:href="#dt"/><use transform="matrix(0.05,0,0,0.05,24.950000000000003,0)" xlink:href="#ek"/><use transform="matrix(0.05,0,0,0.05,34.95,0)" xlink:href="#dt"/><use transform="matrix(0.05,0,0,0.05,46.95,0)" xlink:href="#bD"/><use transform="matrix(0.05,0,0,0.05,57.900000000000006,0)" xlink:href="#dt"/></g><path d="M233-177c-1 41-23 64-60 70L243 0h-38l-65-103H63V0H30v-248c88 3 205-21 203 71zM63-129c60-2 137 13 137-47 0-61-80-42-137-45v92" id="el"/><g id="aI"><use transform="matrix(0.05,0,0,0.05,0,0)" xlink:href="#el"/><use transform="matrix(0.05,0,0,0.05,12.950000000000001,0)" xlink:href="#bd"/><use transform="matrix(0.05,0,0,0.05,22.950000000000003,0)" xlink:href="#bd"/><use transform="matrix(0.05,0,0,0.05,32.95,0)" xlink:href="#bn"/></g><g id="aJ"><use transform="matrix(0.05,0,0,0.05,0,0)" xlink:href="#br"/><use transform="matrix(0.05,0,0,0.05,10,0)" xlink:href="#bc"/><use transform="matrix(0.05,0,0,0.05,19,0)" xlink:href="#bp"/><use transform="matrix(0.05,0,0,0.05,24,0)" xlink:href="#bi"/><use transform="matrix(0.05,0,0,0.05,27.950000000000003,0)" xlink:href="#bq"/><use transform="matrix(0.05,0,0,0.05,36.95,0)" xlink:href="#bg"/><use transform="matrix(0.05,0,0,0.05,46.95,0)" xlink:href="#bm"/></g><path d="M179-190L93 31C79 59 56 82 12 73V49c39 6 53-20 64-50L1-190h34L92-34l54-156h33" id="em"/><g id="aK"><use transform="matrix(0.05,0,0,0.05,0,0)" xlink:href="#bt"/><use transform="matrix(0.05,0,0,0.05,12.950000000000001,0)" xlink:href="#ei"/><use transform="matrix(0.05,0,0,0.05,16.900000000000002,0)" xlink:href="#bg"/><use transform="matrix(0.05,0,0,0.05,26.900000000000002,0)" xlink:href="#br"/><use transform="matrix(0.05,0,0,0.05,36.900000000000006,0)" xlink:href="#bh"/><use transform="matrix(0.05,0,0,0.05,42.85000000000001,0)" xlink:href="#eg"/><use transform="matrix(0.05,0,0,0.05,53.35,0)" xlink:href="#bz"/><use transform="matrix(0.05,0,0,0.05,66.30000000000001,0)" xlink:href="#bg"/><use transform="matrix(0.05,0,0,0.05,76.30000000000001,0)" xlink:href="#bl"/><use transform="matrix(0.05,0,0,0.05,85.30000000000001,0)" xlink:href="#bp"/><use transform="matrix(0.05,0,0,0.05,90.30000000000001,0)" xlink:href="#bh"/><use transform="matrix(0.05,0,0,0.05,96.25000000000001,0)" xlink:href="#bd"/><use transform="matrix(0.05,0,0,0.05,106.25,0)" xlink:href="#em"/></g><g id="aL"><use transform="matrix(0.05,0,0,0.05,0,0)" xlink:href="#dZ"/><use transform="matrix(0.05,0,0,0.05,10.950000000000001,0)" xlink:href="#bd"/><use transform="matrix(0.05,0,0,0.05,20.950000000000003,0)" xlink:href="#bh"/></g><g id="aM"><use transform="matrix(0.05,0,0,0.05,0,0)" xlink:href="#bg"/><use transform="matrix(0.05,0,0,0.05,10,0)" xlink:href="#br"/><use transform="matrix(0.05,0,0,0.05,20,0)" xlink:href="#bc"/><use transform="matrix(0.05,0,0,0.05,29,0)" xlink:href="#dr"/></g><g id="aN"><use transform="matrix(0.05,0,0,0.05,0,0)" xlink:href="#bl"/><use transform="matrix(0.05,0,0,0.05,9,0)" xlink:href="#bp"/><use transform="matrix(0.05,0,0,0.05,14,0)" xlink:href="#bd"/><use transform="matrix(0.05,0,0,0.05,24,0)" xlink:href="#bh"/><use transform="matrix(0.05,0,0,0.05,29.950000000000003,0)" xlink:href="#bg"/><use transform="matrix(0.05,0,0,0.05,39.95,0)" xlink:href="#bs"/></g><g id="aO"><use transform="matrix(0.05,0,0,0.05,0,0)" xlink:href="#bh"/><use transform="matrix(0.05,0,0,0.05,5.95,0)" xlink:href="#bg"/><use transform="matrix(0.05,0,0,0.05,15.949999999999998,0)" xlink:href="#bl"/><use transform="matrix(0.05,0,0,0.05,24.95,0)" xlink:href="#bg"/><use transform="matrix(0.05,0,0,0.05,34.95,0)" xlink:href="#bh"/><use transform="matrix(0.05,0,0,0.05,40.900000000000006,0)" xlink:href="#bq"/><use transform="matrix(0.05,0,0,0.05,49.900000000000006,0)" xlink:href="#br"/><use transform="matrix(0.05,0,0,0.05,59.900000000000006,0)" xlink:href="#bp"/><use transform="matrix(0.05,0,0,0.05,64.9,0)" xlink:href="#bi"/><use transform="matrix(0.05,0,0,0.05,68.85000000000001,0)" xlink:href="#bd"/><use transform="matrix(0.05,0,0,0.05,78.85000000000001,0)" xlink:href="#be"/></g><g id="aP"><use transform="matrix(0.05,0,0,0.05,0,0)" xlink:href="#bs"/><use transform="matrix(0.05,0,0,0.05,10,0)" xlink:href="#br"/><use transform="matrix(0.05,0,0,0.05,20,0)" xlink:href="#bp"/><use transform="matrix(0.05,0,0,0.05,25,0)" xlink:href="#br"/></g><g id="aQ"><use transform="matrix(0.05,0,0,0.05,0,0)" xlink:href="#bg"/><use transform="matrix(0.05,0,0,0.05,10,0)" xlink:href="#bo"/><use transform="matrix(0.05,0,0,0.05,19,0)" xlink:href="#ec"/><use transform="matrix(0.05,0,0,0.05,29,0)" xlink:href="#bi"/><use transform="matrix(0.05,0,0,0.05,32.95,0)" xlink:href="#bh"/><use transform="matrix(0.05,0,0,0.05,38.900000000000006,0)" xlink:href="#bg"/><use transform="matrix(0.05,0,0,0.05,48.900000000000006,0)" xlink:href="#bl"/><use transform="matrix(0.05,0,0,0.05,57.900000000000006,0)" xlink:href="#ed"/><use transform="matrix(0.05,0,0,0.05,67.9,0)" xlink:href="#br"/><use transform="matrix(0.05,0,0,0.05,77.9,0)" xlink:href="#bp"/></g><g id="aR"><use transform="matrix(0.05,0,0,0.05,0,0)" xlink:href="#ec"/><use transform="matrix(0.05,0,0,0.05,10,0)" xlink:href="#br"/><use transform="matrix(0.05,0,0,0.05,20,0)" xlink:href="#bl"/><use transform="matrix(0.05,0,0,0.05,29,0)" xlink:href="#bl"/><use transform="matrix(0.05,0,0,0.05,38,0)" xlink:href="#bg"/><use transform="matrix(0.05,0,0,0.05,48,0)" xlink:href="#bs"/><use transform="matrix(0.05,0,0,0.05,58,0)" xlink:href="#bm"/></g><path d="M143 0L79-87 56-68V0H24v-261h32v163l83-92h37l-77 82L181 0h-38" id="en"/><g id="aS"><use transform="matrix(0.05,0,0,0.05,0,0)" xlink:href="#dr"/><use transform="matrix(0.05,0,0,0.05,10,0)" xlink:href="#bg"/><use transform="matrix(0.05,0,0,0.05,20,0)" xlink:href="#br"/><use transform="matrix(0.05,0,0,0.05,30,0)" xlink:href="#ei"/><use transform="matrix(0.05,0,0,0.05,33.95,0)" xlink:href="#bp"/><use transform="matrix(0.05,0,0,0.05,38.95,0)" xlink:href="#bc"/><use transform="matrix(0.05,0,0,0.05,47.95,0)" xlink:href="#dr"/><use transform="matrix(0.05,0,0,0.05,57.95,0)" xlink:href="#bg"/><use transform="matrix(0.05,0,0,0.05,67.95,0)" xlink:href="#bc"/><use transform="matrix(0.05,0,0,0.05,76.95,0)" xlink:href="#en"/></g><g id="aT"><use transform="matrix(0.05,0,0,0.05,0,0)" xlink:href="#bh"/><use transform="matrix(0.05,0,0,0.05,5.95,0)" xlink:href="#bd"/><use transform="matrix(0.05,0,0,0.05,15.949999999999998,0)" xlink:href="#bd"/><use transform="matrix(0.05,0,0,0.05,25.950000000000003,0)" xlink:href="#bn"/><use transform="matrix(0.05,0,0,0.05,40.9,0)" xlink:href="#bm"/></g><g id="aU"><use transform="matrix(0.05,0,0,0.05,0,0)" xlink:href="#bh"/><use transform="matrix(0.05,0,0,0.05,5.95,0)" xlink:href="#bg"/><use transform="matrix(0.05,0,0,0.05,15.949999999999998,0)" xlink:href="#bl"/><use transform="matrix(0.05,0,0,0.05,24.95,0)" xlink:href="#bg"/><use transform="matrix(0.05,0,0,0.05,34.95,0)" xlink:href="#bh"/><use transform="matrix(0.05,0,0,0.05,40.900000000000006,0)" xlink:href="#bq"/><use transform="matrix(0.05,0,0,0.05,49.900000000000006,0)" xlink:href="#br"/><use transform="matrix(0.05,0,0,0.05,59.900000000000006,0)" xlink:href="#bp"/><use transform="matrix(0.05,0,0,0.05,64.9,0)" xlink:href="#bi"/><use transform="matrix(0.05,0,0,0.05,68.85000000000001,0)" xlink:href="#bd"/><use transform="matrix(0.05,0,0,0.05,78.85000000000001,0)" xlink:href="#be"/></g><g id="aV"><use transform="matrix(0.05,0,0,0.05,0,0)" xlink:href="#bs"/><use transform="matrix(0.05,0,0,0.05,10,0)" xlink:href="#br"/><use transform="matrix(0.05,0,0,0.05,20,0)" xlink:href="#bp"/><use transform="matrix(0.05,0,0,0.05,25,0)" xlink:href="#br"/><use transform="matrix(0.05,0,0,0.05,35,0)" xlink:href="#bm"/></g><g id="aW"><use transform="matrix(0.05,0,0,0.05,0,0)" xlink:href="#dr"/><use transform="matrix(0.05,0,0,0.05,10,0)" xlink:href="#br"/><use transform="matrix(0.05,0,0,0.05,20,0)" xlink:href="#bq"/><use transform="matrix(0.05,0,0,0.05,29,0)" xlink:href="#bg"/></g><g id="aX"><use transform="matrix(0.05,0,0,0.05,0,0)" xlink:href="#bc"/><use transform="matrix(0.05,0,0,0.05,9,0)" xlink:href="#bd"/><use transform="matrix(0.05,0,0,0.05,19,0)" xlink:href="#be"/><use transform="matrix(0.05,0,0,0.05,29,0)" xlink:href="#bf"/><use transform="matrix(0.05,0,0,0.05,34,0)" xlink:href="#ei"/><use transform="matrix(0.05,0,0,0.05,37.95,0)" xlink:href="#bi"/><use transform="matrix(0.05,0,0,0.05,41.900000000000006,0)" xlink:href="#bc"/><use transform="matrix(0.05,0,0,0.05,50.900000000000006,0)" xlink:href="#bp"/><use transform="matrix(0.05,0,0,0.05,55.900000000000006,0)" xlink:href="#ed"/><use transform="matrix(0.05,0,0,0.05,65.9,0)" xlink:href="#bi"/><use transform="matrix(0.05,0,0,0.05,69.85000000000001,0)" xlink:href="#bs"/><use transform="matrix(0.05,0,0,0.05,79.85000000000001,0)" xlink:href="#bm"/></g><path fill="#834187" d="M220-157c-53 9-28 100-34 157h-49v-107c1-27-5-49-29-50C55-147 81-57 75 0H25l-1-190h47c2 12-1 28 3 38 10-53 101-56 108 0 13-22 24-43 59-42 82 1 51 116 57 194h-49v-107c-1-25-5-48-29-50" id="eo"/><path fill="#834187" d="M88-194c31-1 46 15 58 34l-1-101h50l1 261h-48c-2-10 0-23-3-31C134-8 116 4 84 4 32 4 16-41 15-95c0-56 19-97 73-99zm17 164c33 0 40-30 41-66 1-37-9-64-41-64s-38 30-39 65c0 43 13 65 39 65" id="ep"/><path fill="#834187" d="M123 10C108 53 80 86 19 72V37c35 8 53-11 59-39L3-190h52l48 148c12-52 28-100 44-148h51" id="eq"/><g id="aY"><use transform="matrix(0.05,0,0,0.05,0,0)" xlink:href="#eo"/><use transform="matrix(0.05,0,0,0.05,16,0)" xlink:href="#ch"/><use transform="matrix(0.05,0,0,0.05,26.950000000000003,0)" xlink:href="#cb"/><use transform="matrix(0.05,0,0,0.05,36.95,0)" xlink:href="#cf"/><use transform="matrix(0.05,0,0,0.05,42.900000000000006,0)" xlink:href="#ca"/><use transform="matrix(0.05,0,0,0.05,49.900000000000006,0)" xlink:href="#cg"/><use transform="matrix(0.05,0,0,0.05,60.85,0)" xlink:href="#cg"/><use transform="matrix(0.05,0,0,0.05,71.80000000000001,0)" xlink:href="#eo"/><use transform="matrix(0.05,0,0,0.05,87.80000000000001,0)" xlink:href="#cf"/><use transform="matrix(0.05,0,0,0.05,93.75000000000001,0)" xlink:href="#ep"/><use transform="matrix(0.05,0,0,0.05,104.7,0)" xlink:href="#bZ"/><use transform="matrix(0.05,0,0,0.05,114.7,0)" xlink:href="#ce"/><use transform="matrix(0.05,0,0,0.05,124.7,0)" xlink:href="#bY"/><use transform="matrix(0.05,0,0,0.05,130.65,0)" xlink:href="#ca"/><use transform="matrix(0.05,0,0,0.05,137.65,0)" xlink:href="#cg"/><use transform="matrix(0.05,0,0,0.05,148.6,0)" xlink:href="#eq"/><use transform="matrix(0.05,0,0,0.05,158.6,0)" xlink:href="#bZ"/><use transform="matrix(0.05,0,0,0.05,168.6,0)" xlink:href="#ep"/></g><g id="aZ"><use transform="matrix(0.05,0,0,0.05,0,0)" xlink:href="#bg"/><use transform="matrix(0.05,0,0,0.05,10,0)" xlink:href="#bq"/><use transform="matrix(0.05,0,0,0.05,19,0)" xlink:href="#bg"/><use transform="matrix(0.05,0,0,0.05,29,0)" xlink:href="#bh"/><use transform="matrix(0.05,0,0,0.05,34.95,0)" xlink:href="#em"/></g><path d="M110-160c48 1 74 30 74 79 0 53-28 85-80 85-65 0-83-55-86-122-5-90 50-162 133-122 14 7 22 21 27 39l-31 6c-5-40-67-38-82-6-9 19-15 44-15 74 11-20 30-34 60-33zm-7 138c34 0 49-23 49-58s-16-56-50-56c-29 0-50 16-49 49 1 36 15 65 50 65" id="er"/><g id="ba"><use transform="matrix(0.05,0,0,0.05,0,0)" xlink:href="#er"/><use transform="matrix(0.05,0,0,0.05,10,0)" xlink:href="#dl"/></g><g id="bb"><use transform="matrix(0.05,0,0,0.05,0,0)" xlink:href="#bl"/><use transform="matrix(0.05,0,0,0.05,9,0)" xlink:href="#bg"/><use transform="matrix(0.05,0,0,0.05,19,0)" xlink:href="#bc"/><use transform="matrix(0.05,0,0,0.05,28,0)" xlink:href="#bd"/><use transform="matrix(0.05,0,0,0.05,38,0)" xlink:href="#be"/><use transform="matrix(0.05,0,0,0.05,48,0)" xlink:href="#bs"/><use transform="matrix(0.05,0,0,0.05,58,0)" xlink:href="#bl"/></g></defs></g></svg>